<?xml version="1.0" encoding="UTF-8"?>
<!--Generator: Apple Native CoreSVG 175-->
<!DOCTYPE svg
PUBLIC "-//W3C//DTD SVG 1.1//EN"
       "http://www.w3.org/Graphics/SVG/1.1/DTD/svg11.dtd">
<svg version="1.1" xmlns="http://www.w3.org/2000/svg" xmlns:xlink="http://www.w3.org/1999/xlink" width="3300" height="2200">
 <!--glyph: "", point size: 100.0, font version: "17.3d3e1", template writer version: "65.1"-->
 <g id="Notes">
  <rect height="2200" id="artboard" style="fill:white;opacity:1" width="3300" x="0" y="0"/>
  <line style="fill:none;stroke:black;opacity:1;stroke-width:0.5;" x1="263" x2="3036" y1="292" y2="292"/>
  <text style="stroke:none;fill:black;font-family:sans-serif;font-size:13;font-weight:bold;" transform="matrix(1 0 0 1 263 322)">Weight/Scale Variations</text>
  <text style="stroke:none;fill:black;font-family:sans-serif;font-size:13;text-anchor:middle;" transform="matrix(1 0 0 1 559.711 322)">Ultralight</text>
  <text style="stroke:none;fill:black;font-family:sans-serif;font-size:13;text-anchor:middle;" transform="matrix(1 0 0 1 856.422 322)">Thin</text>
  <text style="stroke:none;fill:black;font-family:sans-serif;font-size:13;text-anchor:middle;" transform="matrix(1 0 0 1 1153.13 322)">Light</text>
  <text style="stroke:none;fill:black;font-family:sans-serif;font-size:13;text-anchor:middle;" transform="matrix(1 0 0 1 1449.84 322)">Regular</text>
  <text style="stroke:none;fill:black;font-family:sans-serif;font-size:13;text-anchor:middle;" transform="matrix(1 0 0 1 1746.56 322)">Medium</text>
  <text style="stroke:none;fill:black;font-family:sans-serif;font-size:13;text-anchor:middle;" transform="matrix(1 0 0 1 2043.27 322)">Semibold</text>
  <text style="stroke:none;fill:black;font-family:sans-serif;font-size:13;text-anchor:middle;" transform="matrix(1 0 0 1 2339.98 322)">Bold</text>
  <text style="stroke:none;fill:black;font-family:sans-serif;font-size:13;text-anchor:middle;" transform="matrix(1 0 0 1 2636.69 322)">Heavy</text>
  <text style="stroke:none;fill:black;font-family:sans-serif;font-size:13;text-anchor:middle;" transform="matrix(1 0 0 1 2933.4 322)">Black</text>
  <line style="fill:none;stroke:black;opacity:1;stroke-width:0.5;" x1="263" x2="3036" y1="1903" y2="1903"/>
  <g transform="matrix(1 0 0 1 263 1933)">
   <path d="M9.24805 0.830078Q10.8691 0.830078 12.2949 0.214844Q13.7207-0.400391 14.8096-1.49414Q15.8984-2.58789 16.5186-4.01367Q17.1387-5.43945 17.1387-7.05078Q17.1387-8.66211 16.5186-10.0879Q15.8984-11.5137 14.8047-12.6074Q13.7109-13.7012 12.2852-14.3164Q10.8594-14.9316 9.23828-14.9316Q7.62695-14.9316 6.20117-14.3164Q4.77539-13.7012 3.69141-12.6074Q2.60742-11.5137 1.9873-10.0879Q1.36719-8.66211 1.36719-7.05078Q1.36719-5.43945 1.9873-4.01367Q2.60742-2.58789 3.69629-1.49414Q4.78516-0.400391 6.21094 0.214844Q7.63672 0.830078 9.24805 0.830078ZM9.24805-0.654297Q7.91992-0.654297 6.7627-1.14746Q5.60547-1.64062 4.73145-2.51953Q3.85742-3.39844 3.36426-4.56055Q2.87109-5.72266 2.87109-7.05078Q2.87109-8.37891 3.35938-9.54102Q3.84766-10.7031 4.72168-11.582Q5.5957-12.4609 6.75293-12.9541Q7.91016-13.4473 9.23828-13.4473Q10.5762-13.4473 11.7334-12.9541Q12.8906-12.4609 13.7695-11.582Q14.6484-10.7031 15.1465-9.54102Q15.6445-8.37891 15.6445-7.05078Q15.6445-5.72266 15.1514-4.56055Q14.6582-3.39844 13.7842-2.51953Q12.9102-1.64062 11.748-1.14746Q10.5859-0.654297 9.24805-0.654297ZM5.6543-7.05078Q5.6543-6.72852 5.85938-6.52832Q6.06445-6.32812 6.40625-6.32812L8.51562-6.32812L8.51562-4.20898Q8.51562-3.88672 8.71094-3.67676Q8.90625-3.4668 9.23828-3.4668Q9.56055-3.4668 9.77051-3.67676Q9.98047-3.88672 9.98047-4.20898L9.98047-6.32812L12.0898-6.32812Q12.4219-6.32812 12.627-6.52832Q12.832-6.72852 12.832-7.05078Q12.832-7.38281 12.627-7.58789Q12.4219-7.79297 12.0898-7.79297L9.98047-7.79297L9.98047-9.90234Q9.98047-10.2344 9.77051-10.4443Q9.56055-10.6543 9.23828-10.6543Q8.90625-10.6543 8.71094-10.4443Q8.51562-10.2344 8.51562-9.90234L8.51562-7.79297L6.40625-7.79297Q6.06445-7.79297 5.85938-7.58789Q5.6543-7.38281 5.6543-7.05078Z"/>
  </g>
  <g transform="matrix(1 0 0 1 281.867 1933)">
   <path d="M11.709 2.91016Q13.75 2.91016 15.5518 2.12891Q17.3535 1.34766 18.7305-0.0292969Q20.1074-1.40625 20.8887-3.20801Q21.6699-5.00977 21.6699-7.05078Q21.6699-9.0918 20.8887-10.8936Q20.1074-12.6953 18.7305-14.0723Q17.3535-15.4492 15.5469-16.2305Q13.7402-17.0117 11.6992-17.0117Q9.6582-17.0117 7.85645-16.2305Q6.05469-15.4492 4.68262-14.0723Q3.31055-12.6953 2.5293-10.8936Q1.74805-9.0918 1.74805-7.05078Q1.74805-5.00977 2.5293-3.20801Q3.31055-1.40625 4.6875-0.0292969Q6.06445 1.34766 7.86621 2.12891Q9.66797 2.91016 11.709 2.91016ZM11.709 1.25Q9.98047 1.25 8.47656 0.605469Q6.97266-0.0390625 5.83496-1.17676Q4.69727-2.31445 4.05762-3.81836Q3.41797-5.32227 3.41797-7.05078Q3.41797-8.7793 4.05762-10.2832Q4.69727-11.7871 5.83008-12.9297Q6.96289-14.0723 8.4668-14.7119Q9.9707-15.3516 11.6992-15.3516Q13.4277-15.3516 14.9316-14.7119Q16.4355-14.0723 17.5781-12.9297Q18.7207-11.7871 19.3652-10.2832Q20.0098-8.7793 20.0098-7.05078Q20.0098-5.32227 19.3701-3.81836Q18.7305-2.31445 17.5928-1.17676Q16.4551-0.0390625 14.9463 0.605469Q13.4375 1.25 11.709 1.25ZM7.17773-7.05078Q7.17773-6.69922 7.41211-6.47461Q7.64648-6.25 8.01758-6.25L10.8887-6.25L10.8887-3.36914Q10.8887-2.99805 11.1133-2.76855Q11.3379-2.53906 11.6895-2.53906Q12.0605-2.53906 12.29-2.76855Q12.5195-2.99805 12.5195-3.36914L12.5195-6.25L15.4004-6.25Q15.7715-6.25 16.001-6.47461Q16.2305-6.69922 16.2305-7.05078Q16.2305-7.42188 16.001-7.65137Q15.7715-7.88086 15.4004-7.88086L12.5195-7.88086L12.5195-10.752Q12.5195-11.1328 12.29-11.3623Q12.0605-11.5918 11.6895-11.5918Q11.3379-11.5918 11.1133-11.3574Q10.8887-11.123 10.8887-10.752L10.8887-7.88086L8.01758-7.88086Q7.63672-7.88086 7.40723-7.65137Q7.17773-7.42188 7.17773-7.05078Z"/>
  </g>
  <g transform="matrix(1 0 0 1 305.646 1933)">
   <path d="M14.9707 5.66406Q17.0605 5.66406 18.96 5.01465Q20.8594 4.36523 22.4512 3.19336Q24.043 2.02148 25.2197 0.429688Q26.3965-1.16211 27.0459-3.06641Q27.6953-4.9707 27.6953-7.05078Q27.6953-9.14062 27.0459-11.04Q26.3965-12.9395 25.2197-14.5312Q24.043-16.123 22.4512-17.2998Q20.8594-18.4766 18.9551-19.126Q17.0508-19.7754 14.9609-19.7754Q12.8711-19.7754 10.9717-19.126Q9.07227-18.4766 7.48535-17.2998Q5.89844-16.123 4.72168-14.5312Q3.54492-12.9395 2.90039-11.04Q2.25586-9.14062 2.25586-7.05078Q2.25586-4.9707 2.90527-3.06641Q3.55469-1.16211 4.72656 0.429688Q5.89844 2.02148 7.49023 3.19336Q9.08203 4.36523 10.9814 5.01465Q12.8809 5.66406 14.9707 5.66406ZM14.9707 3.84766Q13.1641 3.84766 11.5283 3.2959Q9.89258 2.74414 8.53516 1.74805Q7.17773 0.751953 6.17676-0.610352Q5.17578-1.97266 4.62891-3.6084Q4.08203-5.24414 4.08203-7.05078Q4.08203-8.86719 4.62891-10.5029Q5.17578-12.1387 6.17188-13.501Q7.16797-14.8633 8.52539-15.8594Q9.88281-16.8555 11.5186-17.4023Q13.1543-17.9492 14.9609-17.9492Q16.7773-17.9492 18.4131-17.4023Q20.0488-16.8555 21.4111-15.8594Q22.7734-14.8633 23.7695-13.501Q24.7656-12.1387 25.3174-10.5029Q25.8691-8.86719 25.8691-7.05078Q25.8789-5.24414 25.332-3.6084Q24.7852-1.97266 23.7842-0.610352Q22.7832 0.751953 21.4209 1.74805Q20.0586 2.74414 18.4229 3.2959Q16.7871 3.84766 14.9707 3.84766ZM9.19922-7.05078Q9.19922-6.66992 9.45801-6.4209Q9.7168-6.17188 10.1172-6.17188L14.0625-6.17188L14.0625-2.2168Q14.0625-1.81641 14.3115-1.55762Q14.5605-1.29883 14.9512-1.29883Q15.3516-1.29883 15.6104-1.55273Q15.8691-1.80664 15.8691-2.2168L15.8691-6.17188L19.8242-6.17188Q20.2246-6.17188 20.4785-6.4209Q20.7324-6.66992 20.7324-7.05078Q20.7324-7.46094 20.4785-7.71484Q20.2246-7.96875 19.8242-7.96875L15.8691-7.96875L15.8691-11.9141Q15.8691-12.3242 15.6104-12.583Q15.3516-12.8418 14.9512-12.8418Q14.5605-12.8418 14.3115-12.583Q14.0625-12.3242 14.0625-11.9141L14.0625-7.96875L10.1172-7.96875Q9.70703-7.96875 9.45312-7.71484Q9.19922-7.46094 9.19922-7.05078Z"/>
  </g>
  <text style="stroke:none;fill:black;font-family:sans-serif;font-size:13;font-weight:bold;" transform="matrix(1 0 0 1 263 1953)">Design Variations</text>
  <text style="stroke:none;fill:black;font-family:sans-serif;font-size:13;" transform="matrix(1 0 0 1 263 1971)">Symbols are supported in up to nine weights and three scales.</text>
  <text style="stroke:none;fill:black;font-family:sans-serif;font-size:13;" transform="matrix(1 0 0 1 263 1989)">For optimal layout with text and other symbols, vertically align</text>
  <text style="stroke:none;fill:black;font-family:sans-serif;font-size:13;" transform="matrix(1 0 0 1 263 2007)">symbols with the adjacent text.</text>
  <line style="fill:none;stroke:#00AEEF;stroke-width:0.5;opacity:1.0;" x1="776" x2="776" y1="1919" y2="1933"/>
  <g transform="matrix(1 0 0 1 776 1933)">
   <path d="M3.31055 0.15625Q3.70117 0.15625 3.91602-0.00976562Q4.13086-0.175781 4.26758-0.585938L5.52734-4.0332L11.2891-4.0332L12.5488-0.585938Q12.6855-0.175781 12.9004-0.00976562Q13.1152 0.15625 13.4961 0.15625Q13.8867 0.15625 14.1162-0.0585938Q14.3457-0.273438 14.3457-0.644531Q14.3457-0.869141 14.2383-1.17188L9.6582-13.3691Q9.48242-13.8184 9.17969-14.043Q8.87695-14.2676 8.4082-14.2676Q7.5-14.2676 7.17773-13.3789L2.59766-1.16211Q2.49023-0.859375 2.49023-0.634766Q2.49023-0.263672 2.70996-0.0537109Q2.92969 0.15625 3.31055 0.15625ZM6.00586-5.51758L8.37891-12.0898L8.42773-12.0898L10.8008-5.51758Z"/>
  </g>
  <line style="fill:none;stroke:#00AEEF;stroke-width:0.5;opacity:1.0;" x1="793.197" x2="793.197" y1="1919" y2="1933"/>
  <text style="stroke:none;fill:black;font-family:sans-serif;font-size:13;font-weight:bold;" transform="matrix(1 0 0 1 776 1953)">Margins</text>
  <text style="stroke:none;fill:black;font-family:sans-serif;font-size:13;" transform="matrix(1 0 0 1 776 1971)">Leading and trailing margins on the left and right side of each symbol</text>
  <text style="stroke:none;fill:black;font-family:sans-serif;font-size:13;" transform="matrix(1 0 0 1 776 1989)">can be adjusted by modifying the x-location of the margin guidelines.</text>
  <text style="stroke:none;fill:black;font-family:sans-serif;font-size:13;" transform="matrix(1 0 0 1 776 2007)">Modifications are automatically applied proportionally to all</text>
  <text style="stroke:none;fill:black;font-family:sans-serif;font-size:13;" transform="matrix(1 0 0 1 776 2025)">scales and weights.</text>
  <g transform="matrix(1 0 0 1 1289 1933)">
   <path d="M2.8418 1.86523L4.54102 3.57422Q5.18555 4.22852 5.90332 4.17969Q6.62109 4.13086 7.31445 3.35938L18.0078-8.42773L17.041-9.4043L6.42578 2.27539Q6.16211 2.57812 5.89355 2.61719Q5.625 2.65625 5.27344 2.30469L4.10156 1.14258Q3.75 0.791016 3.79395 0.522461Q3.83789 0.253906 4.14062-0.0195312L15.6152-10.8203L14.6387-11.7871L3.04688-0.898438Q2.30469-0.214844 2.25098 0.498047Q2.19727 1.21094 2.8418 1.86523ZM9.25781-16.3281Q8.94531-16.0254 8.90625-15.6348Q8.86719-15.2441 9.04297-14.9512Q9.21875-14.6777 9.55566-14.541Q9.89258-14.4043 10.3809-14.5215Q11.4746-14.7754 12.5977-14.7314Q13.7207-14.6875 14.7949-13.9844L14.209-12.5293Q13.9551-11.9043 14.0674-11.4404Q14.1797-10.9766 14.5801-10.5664L16.875-8.25195Q17.2363-7.88086 17.5781-7.82227Q17.9199-7.76367 18.3398-7.8418L19.4043-8.03711L20.0684-7.36328L20.0293-6.80664Q20-6.43555 20.1221-6.12305Q20.2441-5.81055 20.6055-5.44922L21.3672-4.70703Q21.7285-4.3457 22.1533-4.33105Q22.5781-4.31641 22.9297-4.66797L25.8398-7.58789Q26.1914-7.93945 26.1816-8.35449Q26.1719-8.76953 25.8105-9.13086L25.0391-9.89258Q24.6875-10.2539 24.3799-10.3857Q24.0723-10.5176 23.7109-10.4883L23.1348-10.4395L22.4902-11.0742L22.7344-12.1973Q22.832-12.6172 22.6953-12.9834Q22.5586-13.3496 22.1191-13.7891L19.9219-15.9766Q18.6719-17.2168 17.2607-17.8369Q15.8496-18.457 14.4189-18.4814Q12.9883-18.5059 11.665-17.959Q10.3418-17.4121 9.25781-16.3281ZM10.752-15.957Q11.6602-16.6211 12.7002-16.9043Q13.7402-17.1875 14.8047-17.085Q15.8691-16.9824 16.8701-16.5137Q17.8711-16.0449 18.7012-15.2051L21.1328-12.793Q21.3086-12.6172 21.3525-12.4512Q21.3965-12.2852 21.3379-12.0312L21.0156-10.5469L22.5195-9.0625L23.5059-9.12109Q23.6914-9.13086 23.7891-9.09668Q23.8867-9.0625 24.0332-8.91602L24.6094-8.33984L22.168-5.89844L21.5918-6.47461Q21.4453-6.62109 21.4062-6.71875Q21.3672-6.81641 21.377-7.01172L21.4453-7.98828L19.9512-9.47266L18.4277-9.21875Q18.1836-9.16992 18.042-9.2041Q17.9004-9.23828 17.7148-9.41406L15.7129-11.416Q15.5176-11.5918 15.4932-11.7529Q15.4688-11.9141 15.5859-12.1875L16.4648-14.2773Q15.293-15.3711 13.8281-15.791Q12.3633-16.2109 10.8398-15.7617Q10.7227-15.7324 10.6885-15.8057Q10.6543-15.8789 10.752-15.957Z"/>
  </g>
  <text style="stroke:none;fill:black;font-family:sans-serif;font-size:13;font-weight:bold;" transform="matrix(1 0 0 1 1289 1953)">Exporting</text>
  <text style="stroke:none;fill:black;font-family:sans-serif;font-size:13;" transform="matrix(1 0 0 1 1289 1971)">Symbols should be outlined when exporting to ensure the</text>
  <text style="stroke:none;fill:black;font-family:sans-serif;font-size:13;" transform="matrix(1 0 0 1 1289 1989)">design is preserved when submitting to Xcode.</text>
  <text id="template-version" style="stroke:none;fill:black;font-family:sans-serif;font-size:13;text-anchor:end;" transform="matrix(1 0 0 1 3036 1933)">Template v.3.0</text>
  <text style="stroke:none;fill:black;font-family:sans-serif;font-size:13;text-anchor:end;" transform="matrix(1 0 0 1 3036 1951)">Requires Xcode 13 or greater</text>
  <text id="descriptive-name" style="stroke:none;fill:black;font-family:sans-serif;font-size:13;text-anchor:end;" transform="matrix(1 0 0 1 3036 1969)">Generated from chest</text>
  <text style="stroke:none;fill:black;font-family:sans-serif;font-size:13;text-anchor:end;" transform="matrix(1 0 0 1 3036 1987)">Typeset at 100 points</text>
  <text style="stroke:none;fill:black;font-family:sans-serif;font-size:13;" transform="matrix(1 0 0 1 263 726)">Small</text>
  <text style="stroke:none;fill:black;font-family:sans-serif;font-size:13;" transform="matrix(1 0 0 1 263 1156)">Medium</text>
  <text style="stroke:none;fill:black;font-family:sans-serif;font-size:13;" transform="matrix(1 0 0 1 263 1586)">Large</text>
 </g>
 <g id="Guides">
  <g id="H-reference" style="fill:#27AAE1;stroke:none;" transform="matrix(1 0 0 1 339 696)">
   <path d="M0.993347 0L3.6377 0L29.3282-67.1326L30.0301-67.1326L30.0301-70.459L28.1227-70.459ZM11.6882-24.4797L46.9818-24.4797L46.2311-26.7288L12.4382-26.7288ZM55.1193 0L57.7637 0L30.6381-70.459L29.4327-70.459L29.4327-67.1326Z"/>
  </g>
  <line id="Baseline-S" style="fill:none;stroke:#27AAE1;opacity:1;stroke-width:0.5;" x1="263" x2="3036" y1="696" y2="696"/>
  <line id="Capline-S" style="fill:none;stroke:#27AAE1;opacity:1;stroke-width:0.5;" x1="263" x2="3036" y1="625.541" y2="625.541"/>
  <g id="H-reference" style="fill:#27AAE1;stroke:none;" transform="matrix(1 0 0 1 339 1126)">
   <path d="M0.993347 0L3.6377 0L29.3282-67.1326L30.0301-67.1326L30.0301-70.459L28.1227-70.459ZM11.6882-24.4797L46.9818-24.4797L46.2311-26.7288L12.4382-26.7288ZM55.1193 0L57.7637 0L30.6381-70.459L29.4327-70.459L29.4327-67.1326Z"/>
  </g>
  <line id="Baseline-M" style="fill:none;stroke:#27AAE1;opacity:1;stroke-width:0.5;" x1="263" x2="3036" y1="1126" y2="1126"/>
  <line id="Capline-M" style="fill:none;stroke:#27AAE1;opacity:1;stroke-width:0.5;" x1="263" x2="3036" y1="1055.54" y2="1055.54"/>
  <g id="H-reference" style="fill:#27AAE1;stroke:none;" transform="matrix(1 0 0 1 339 1556)">
   <path d="M0.993347 0L3.6377 0L29.3282-67.1326L30.0301-67.1326L30.0301-70.459L28.1227-70.459ZM11.6882-24.4797L46.9818-24.4797L46.2311-26.7288L12.4382-26.7288ZM55.1193 0L57.7637 0L30.6381-70.459L29.4327-70.459L29.4327-67.1326Z"/>
  </g>
  <line id="Baseline-L" style="fill:none;stroke:#27AAE1;opacity:1;stroke-width:0.5;" x1="263" x2="3036" y1="1556" y2="1556"/>
  <line id="Capline-L" style="fill:none;stroke:#27AAE1;opacity:1;stroke-width:0.5;" x1="263" x2="3036" y1="1485.54" y2="1485.54"/>
  <line id="left-margin-Ultralight-S" style="fill:none;stroke:#00AEEF;stroke-width:0.5;opacity:1.0;" x1="516.821" x2="516.821" y1="600.784" y2="720.121"/>
  <line id="right-margin-Ultralight-S" style="fill:none;stroke:#00AEEF;stroke-width:0.5;opacity:1.0;" x1="602.601" x2="602.601" y1="600.784" y2="720.121"/>
  <line id="left-margin-Regular-S" style="fill:none;stroke:#00AEEF;stroke-width:0.5;opacity:1.0;" x1="1404.98" x2="1404.98" y1="600.784" y2="720.121"/>
  <line id="right-margin-Regular-S" style="fill:none;stroke:#00AEEF;stroke-width:0.5;opacity:1.0;" x1="1494.71" x2="1494.71" y1="600.784" y2="720.121"/>
  <line id="left-margin-Black-S" style="fill:none;stroke:#00AEEF;stroke-width:0.5;opacity:1.0;" x1="2885.97" x2="2885.97" y1="600.784" y2="720.121"/>
  <line id="right-margin-Black-S" style="fill:none;stroke:#00AEEF;stroke-width:0.5;opacity:1.0;" x1="2980.83" x2="2980.83" y1="600.784" y2="720.121"/>
 </g>
 <g id="Symbols">
  <g id="Black-S" transform="matrix(1 0 0 1 2885.97 696)">
   <path d="M56.0359-67.408C56.7919-67.402 57.4349-66.856 57.5629-66.111C57.8919-64.201 58.4709-60.842 58.4709-60.842C62.6739-60.252 66.7889-57.631 70.8279-53.193C77.6439-53.625 82.6679-51.761 85.8179-47.4971C86.2369-46.9221 86.3229-46.1691 86.0429-45.5141C84.0709-40.8741 75.9259-21.8161 75.9259-21.8161C73.3479-11.4061 70.0909-2.68612 66.2659 4.61887L66.4499 9.70386L26.8319 9.62686L27.0059 4.78787C22.7569-3.93112 20.0329-12.8551 18.7409-21.9711C18.7409-21.9711 10.0058-40.2251 7.57284-45.3091C7.16984-46.1511 7.28984-47.1491 7.87984-47.8721C11.3388-52.045 16.4109-53.897 23.0139-53.554C26.0819-57.226 30.0379-59.983 35.1059-61.593C35.1059-61.593 35.7159-64.434 36.0949-66.198C36.2659-66.995 36.9749-67.563 37.7899-67.556C41.6339-67.525 52.3069-67.439 56.0359-67.408ZM45.6849-13.7361L45.7109-9.34311C45.7149-8.79111 46.1649-8.34611 46.7169-8.34911C47.2689-8.35211 47.7149-8.80311 47.7109-9.35511L47.6849-13.7861L53.1309-15.1301C53.1309-15.1301 58.5759-15.1621 58.5759-15.1621C59.1279-15.1651 59.5739-15.6151 59.5709-16.1671C59.5669-16.7191 59.1169-17.1651 58.5649-17.1621L53.0009-17.1301C52.9219-17.1291 52.8439-17.1191 52.7669-17.1011L46.6719-15.5961C46.6719-15.5961 40.5549-16.9971 40.5549-16.9971C40.4939-17.0111 40.4319-17.0201 40.3689-17.0221L33.7309-17.2731C33.1789-17.2931 32.7149-16.8621 32.6939-16.3111C32.6729-15.7591 33.1039-15.2951 33.6549-15.2741L40.1999-15.0271L45.6709-13.7741L45.6709-13.7361L45.6849-13.7361ZM47.6769-13.8171L47.6769-13.7861L47.6849-13.7861C47.6849-13.7861 47.6819-13.7971 47.6769-13.8171ZM16.8049-30.3981C16.8049-30.3981 20.3189-26.5261 21.4979-25.2271C21.9329-24.7481 22.5529-24.4791 23.2009-24.4891L39.9299-24.7581C42.5479-24.8001 44.8239-26.5671 45.5139-29.0931C45.5139-29.0931 46.6689-33.3201 46.6689-33.3201C46.6689-33.3201 47.8789-28.8711 47.8789-28.8711C48.5109-26.5501 50.5979-24.9241 53.0029-24.8801C58.4299-24.7801 68.8779-24.5871 71.4359-24.5401C72.0929-24.5281 72.7219-24.8021 73.1599-25.2911C74.3439-26.6111 77.8549-30.5251 77.8549-30.5251C78.2229-30.9361 78.1889-31.5691 77.7779-31.9381C77.3669-32.3061 76.7339-32.2721 76.3659-31.8611C76.3659-31.8611 72.8549-27.9461 71.6709-26.6261C71.6209-26.5701 71.5489-26.5381 71.4729-26.5401L53.0389-26.8801C51.5229-26.9081 50.2069-27.9331 49.8089-29.3961C48.9099-32.7011 47.6349-37.3861 47.6349-37.3861C47.5169-37.8211 47.1219-38.1231 46.6709-38.1231C46.2199-38.1231 45.8239-37.8221 45.7059-37.3871C45.7059-37.3871 44.4899-32.9371 43.5849-29.6201C43.1289-27.9521 41.6269-26.7851 39.8979-26.7581C39.8979-26.7581 23.1689-26.4891 23.1689-26.4891C23.0959-26.4881 23.0269-26.5181 22.9789-26.5711C21.7999-27.8701 18.2859-31.7431 18.2859-31.7431C17.9149-32.1511 17.2819-32.1821 16.8729-31.8111C16.4639-31.4401 16.4339-30.8071 16.8049-30.3981ZM52.3449-45.9261L65.2239-48.7481C65.7629-48.8661 66.1049-49.4001 65.9869-49.9391C65.8679-50.4781 65.3349-50.8201 64.7959-50.7021L51.9169-47.8791C51.3779-47.7611 51.0359-47.2281 51.1539-46.6881C51.2729-46.1491 51.8059-45.8081 52.3449-45.9261ZM26.8459-48.7871L40.1199-45.9371C40.6599-45.8211 41.1919-46.1651 41.3079-46.7051C41.4239-47.2451 41.0799-47.7771 40.5399-47.8931L27.2649-50.7431C26.7259-50.8581 26.1939-50.5141 26.0779-49.9751C25.9619-49.4351 26.3059-48.9031 26.8459-48.7871Z"/>
  </g>
  <g id="Regular-S" transform="matrix(1 0 0 1 1404.98 696)">
   <path d="M54.3459-67.408C55.1019-67.402 55.7449-66.856 55.8729-66.111C56.2019-64.201 56.7809-60.842 56.7809-60.842C60.9839-60.252 65.0989-57.631 69.1379-53.193C75.9539-53.625 80.9779-51.761 84.1279-47.4971C84.5469-46.9221 84.6329-46.1691 84.3529-45.5141C82.3809-40.8741 74.2359-21.8161 74.2359-21.8161C71.6579-11.4061 68.4009-2.68612 64.5759 4.61887L64.7599 9.70386L25.1419 9.62686L25.3159 4.78787C21.0669-3.93112 18.3429-12.8551 17.0509-21.9711C17.0509-21.9711 8.31585-40.2251 5.88284-45.3091C5.47984-46.1511 5.59984-47.1491 6.18984-47.8721C9.64885-52.045 14.7209-53.897 21.3239-53.554C24.3919-57.226 28.3479-59.983 33.4159-61.593C33.4159-61.593 34.0259-64.434 34.4049-66.198C34.5759-66.995 35.2849-67.563 36.0999-67.556C39.9439-67.525 50.6169-67.439 54.3459-67.408ZM43.9949-13.7361L44.0209-9.34311C44.0249-8.79111 44.4749-8.34611 45.0269-8.34911C45.5789-8.35211 46.0249-8.80311 46.0209-9.35511L45.9949-13.7861L51.4409-15.1301C51.4409-15.1301 56.8859-15.1621 56.8859-15.1621C57.4379-15.1651 57.8839-15.6151 57.8809-16.1671C57.8769-16.7191 57.4269-17.1651 56.8749-17.1621L51.3109-17.1301C51.2319-17.1291 51.1539-17.1191 51.0769-17.1011L44.9819-15.5961C44.9819-15.5961 38.8649-16.9971 38.8649-16.9971C38.8039-17.0111 38.7419-17.0201 38.6789-17.0221L32.0409-17.2731C31.4889-17.2931 31.0249-16.8621 31.0039-16.3111C30.9829-15.7591 31.4139-15.2951 31.9649-15.2741L38.5099-15.0271L43.9809-13.7741L43.9809-13.7361L43.9949-13.7361ZM45.9869-13.8171L45.9869-13.7861L45.9949-13.7861C45.9949-13.7861 45.9919-13.7971 45.9869-13.8171ZM15.1149-30.3981C15.1149-30.3981 18.6289-26.5261 19.8079-25.2271C20.2429-24.7481 20.8629-24.4791 21.5109-24.4891L38.2399-24.7581C40.8579-24.8001 43.1339-26.5671 43.8239-29.0931C43.8239-29.0931 44.9789-33.3201 44.9789-33.3201C44.9789-33.3201 46.1889-28.8711 46.1889-28.8711C46.8209-26.5501 48.9079-24.9241 51.3129-24.8801C56.7399-24.7801 67.1879-24.5871 69.7459-24.5401C70.4029-24.5281 71.0319-24.8021 71.4699-25.2911C72.6539-26.6111 76.1649-30.5251 76.1649-30.5251C76.5329-30.9361 76.4989-31.5691 76.0879-31.9381C75.6769-32.3061 75.0439-32.2721 74.6759-31.8611C74.6759-31.8611 71.1649-27.9461 69.9809-26.6261C69.9309-26.5701 69.8589-26.5381 69.7829-26.5401L51.3489-26.8801C49.8329-26.9081 48.5169-27.9331 48.1189-29.3961C47.2199-32.7011 45.9449-37.3861 45.9449-37.3861C45.8269-37.8211 45.4319-38.1231 44.9809-38.1231C44.5299-38.1231 44.1339-37.8221 44.0159-37.3871C44.0159-37.3871 42.7999-32.9371 41.8949-29.6201C41.4389-27.9521 39.9369-26.7851 38.2079-26.7581C38.2079-26.7581 21.4789-26.4891 21.4789-26.4891C21.4059-26.4881 21.3369-26.5181 21.2889-26.5711C20.1099-27.8701 16.5959-31.7431 16.5959-31.7431C16.2249-32.1511 15.5919-32.1821 15.1829-31.8111C14.7739-31.4401 14.7439-30.8071 15.1149-30.3981ZM50.6549-45.9261L63.5339-48.7481C64.0729-48.8661 64.4149-49.4001 64.2969-49.9391C64.1779-50.4781 63.6449-50.8201 63.1059-50.7021L50.2269-47.8791C49.6879-47.7611 49.3459-47.2281 49.4639-46.6881C49.5829-46.1491 50.1159-45.8081 50.6549-45.9261ZM25.1559-48.7871L38.4299-45.9371C38.9699-45.8211 39.5019-46.1651 39.6179-46.7051C39.7339-47.2451 39.3899-47.7771 38.8499-47.8931L25.5749-50.7431C25.0359-50.8581 24.5039-50.5141 24.3879-49.9751C24.2719-49.4351 24.6159-48.9031 25.1559-48.7871Z"/>
  </g>
  <g id="Ultralight-S" transform="matrix(1 0 0 1 516.821 696)">
   <path d="M52.5559-67.408C53.3119-67.402 53.9549-66.856 54.0829-66.111C54.4119-64.201 54.9909-60.842 54.9909-60.842C59.1939-60.252 63.3089-57.631 67.3479-53.193C74.1639-53.625 79.1879-51.761 82.3379-47.4971C82.7569-46.9221 82.8429-46.1691 82.5629-45.5141C80.5909-40.8741 72.4459-21.8161 72.4459-21.8161C69.8679-11.4061 66.6109-2.68612 62.7859 4.61887L62.9699 9.70386L23.3519 9.62686L23.5259 4.78787C19.2769-3.93112 16.5529-12.8551 15.2609-21.9711C15.2609-21.9711 6.52585-40.2251 4.09284-45.3091C3.68984-46.1511 3.80984-47.1491 4.39984-47.8721C7.85885-52.045 12.9309-53.897 19.5339-53.554C22.6019-57.226 26.5579-59.983 31.6259-61.593C31.6259-61.593 32.2359-64.434 32.6149-66.198C32.7859-66.995 33.4949-67.563 34.3099-67.556C38.1539-67.525 48.8269-67.439 52.5559-67.408ZM42.2049-13.7361L42.2309-9.34311C42.2349-8.79111 42.6849-8.34611 43.2369-8.34911C43.7889-8.35211 44.2349-8.80311 44.2309-9.35511L44.2049-13.7861L49.6509-15.1301C49.6509-15.1301 55.0959-15.1621 55.0959-15.1621C55.6479-15.1651 56.0939-15.6151 56.0909-16.1671C56.0869-16.7191 55.6369-17.1651 55.0849-17.1621L49.5209-17.1301C49.4419-17.1291 49.3639-17.1191 49.2869-17.1011L43.1919-15.5961C43.1919-15.5961 37.0749-16.9971 37.0749-16.9971C37.0139-17.0111 36.9519-17.0201 36.8889-17.0221L30.2509-17.2731C29.6989-17.2931 29.2349-16.8621 29.2139-16.3111C29.1929-15.7591 29.6239-15.2951 30.1749-15.2741L36.7199-15.0271L42.1909-13.7741L42.1909-13.7361L42.2049-13.7361ZM44.1969-13.8171L44.1969-13.7861L44.2049-13.7861C44.2049-13.7861 44.2019-13.7971 44.1969-13.8171ZM13.3249-30.3981C13.3249-30.3981 16.8389-26.5261 18.0179-25.2271C18.4529-24.7481 19.0729-24.4791 19.7209-24.4891L36.4499-24.7581C39.0679-24.8001 41.3439-26.5671 42.0339-29.0931C42.0339-29.0931 43.1889-33.3201 43.1889-33.3201C43.1889-33.3201 44.3989-28.8711 44.3989-28.8711C45.0309-26.5501 47.1179-24.9241 49.5229-24.8801C54.9499-24.7801 65.3979-24.5871 67.9559-24.5401C68.6129-24.5281 69.2419-24.8021 69.6799-25.2911C70.8639-26.6111 74.3749-30.5251 74.3749-30.5251C74.7429-30.9361 74.7089-31.5691 74.2979-31.9381C73.8869-32.3061 73.2539-32.2721 72.8859-31.8611C72.8859-31.8611 69.3749-27.9461 68.1909-26.6261C68.1409-26.5701 68.0689-26.5381 67.9929-26.5401L49.5589-26.8801C48.0429-26.9081 46.7269-27.9331 46.3289-29.3961C45.4299-32.7011 44.1549-37.3861 44.1549-37.3861C44.0369-37.8211 43.6419-38.1231 43.1909-38.1231C42.7399-38.1231 42.3439-37.8221 42.2259-37.3871C42.2259-37.3871 41.0099-32.9371 40.1049-29.6201C39.6489-27.9521 38.1469-26.7851 36.4179-26.7581C36.4179-26.7581 19.6889-26.4891 19.6889-26.4891C19.6159-26.4881 19.5469-26.5181 19.4989-26.5711C18.3199-27.8701 14.8059-31.7431 14.8059-31.7431C14.4349-32.1511 13.8019-32.1821 13.3929-31.8111C12.9839-31.4401 12.9539-30.8071 13.3249-30.3981ZM48.8649-45.9261L61.7439-48.7481C62.2829-48.8661 62.6249-49.4001 62.5069-49.9391C62.3879-50.4781 61.8549-50.8201 61.3159-50.7021L48.4369-47.8791C47.8979-47.7611 47.5559-47.2281 47.6739-46.6881C47.7929-46.1491 48.3259-45.8081 48.8649-45.9261ZM23.3659-48.7871L36.6399-45.9371C37.1799-45.8211 37.7119-46.1651 37.8279-46.7051C37.9439-47.2451 37.5999-47.7771 37.0599-47.8931L23.7849-50.7431C23.2459-50.8581 22.7139-50.5141 22.5979-49.9751C22.4819-49.4351 22.8259-48.9031 23.3659-48.7871Z"/>
  </g>
 </g>
</svg>
