<?xml version="1.0" encoding="UTF-8"?>
<!--Generator: Apple Native CoreSVG 175-->
<!DOCTYPE svg
PUBLIC "-//W3C//DTD SVG 1.1//EN"
       "http://www.w3.org/Graphics/SVG/1.1/DTD/svg11.dtd">
<svg version="1.1" xmlns="http://www.w3.org/2000/svg" xmlns:xlink="http://www.w3.org/1999/xlink" width="3300" height="2200">
 <!--glyph: "", point size: 100.0, font version: "17.3d3e1", template writer version: "65.1"-->
 <g id="Notes">
  <rect height="2200" id="artboard" style="fill:white;opacity:1" width="3300" x="0" y="0"/>
  <line style="fill:none;stroke:black;opacity:1;stroke-width:0.5;" x1="263" x2="3036" y1="292" y2="292"/>
  <text style="stroke:none;fill:black;font-family:sans-serif;font-size:13;font-weight:bold;" transform="matrix(1 0 0 1 263 322)">Weight/Scale Variations</text>
  <text style="stroke:none;fill:black;font-family:sans-serif;font-size:13;text-anchor:middle;" transform="matrix(1 0 0 1 559.711 322)">Ultralight</text>
  <text style="stroke:none;fill:black;font-family:sans-serif;font-size:13;text-anchor:middle;" transform="matrix(1 0 0 1 856.422 322)">Thin</text>
  <text style="stroke:none;fill:black;font-family:sans-serif;font-size:13;text-anchor:middle;" transform="matrix(1 0 0 1 1153.13 322)">Light</text>
  <text style="stroke:none;fill:black;font-family:sans-serif;font-size:13;text-anchor:middle;" transform="matrix(1 0 0 1 1449.84 322)">Regular</text>
  <text style="stroke:none;fill:black;font-family:sans-serif;font-size:13;text-anchor:middle;" transform="matrix(1 0 0 1 1746.56 322)">Medium</text>
  <text style="stroke:none;fill:black;font-family:sans-serif;font-size:13;text-anchor:middle;" transform="matrix(1 0 0 1 2043.27 322)">Semibold</text>
  <text style="stroke:none;fill:black;font-family:sans-serif;font-size:13;text-anchor:middle;" transform="matrix(1 0 0 1 2339.98 322)">Bold</text>
  <text style="stroke:none;fill:black;font-family:sans-serif;font-size:13;text-anchor:middle;" transform="matrix(1 0 0 1 2636.69 322)">Heavy</text>
  <text style="stroke:none;fill:black;font-family:sans-serif;font-size:13;text-anchor:middle;" transform="matrix(1 0 0 1 2933.4 322)">Black</text>
  <line style="fill:none;stroke:black;opacity:1;stroke-width:0.5;" x1="263" x2="3036" y1="1903" y2="1903"/>
  <g transform="matrix(1 0 0 1 263 1933)">
   <path d="M9.24805 0.830078Q10.8691 0.830078 12.2949 0.214844Q13.7207-0.400391 14.8096-1.49414Q15.8984-2.58789 16.5186-4.01367Q17.1387-5.43945 17.1387-7.05078Q17.1387-8.66211 16.5186-10.0879Q15.8984-11.5137 14.8047-12.6074Q13.7109-13.7012 12.2852-14.3164Q10.8594-14.9316 9.23828-14.9316Q7.62695-14.9316 6.20117-14.3164Q4.77539-13.7012 3.69141-12.6074Q2.60742-11.5137 1.9873-10.0879Q1.36719-8.66211 1.36719-7.05078Q1.36719-5.43945 1.9873-4.01367Q2.60742-2.58789 3.69629-1.49414Q4.78516-0.400391 6.21094 0.214844Q7.63672 0.830078 9.24805 0.830078ZM9.24805-0.654297Q7.91992-0.654297 6.7627-1.14746Q5.60547-1.64062 4.73145-2.51953Q3.85742-3.39844 3.36426-4.56055Q2.87109-5.72266 2.87109-7.05078Q2.87109-8.37891 3.35938-9.54102Q3.84766-10.7031 4.72168-11.582Q5.5957-12.4609 6.75293-12.9541Q7.91016-13.4473 9.23828-13.4473Q10.5762-13.4473 11.7334-12.9541Q12.8906-12.4609 13.7695-11.582Q14.6484-10.7031 15.1465-9.54102Q15.6445-8.37891 15.6445-7.05078Q15.6445-5.72266 15.1514-4.56055Q14.6582-3.39844 13.7842-2.51953Q12.9102-1.64062 11.748-1.14746Q10.5859-0.654297 9.24805-0.654297ZM5.6543-7.05078Q5.6543-6.72852 5.85938-6.52832Q6.06445-6.32812 6.40625-6.32812L8.51562-6.32812L8.51562-4.20898Q8.51562-3.88672 8.71094-3.67676Q8.90625-3.4668 9.23828-3.4668Q9.56055-3.4668 9.77051-3.67676Q9.98047-3.88672 9.98047-4.20898L9.98047-6.32812L12.0898-6.32812Q12.4219-6.32812 12.627-6.52832Q12.832-6.72852 12.832-7.05078Q12.832-7.38281 12.627-7.58789Q12.4219-7.79297 12.0898-7.79297L9.98047-7.79297L9.98047-9.90234Q9.98047-10.2344 9.77051-10.4443Q9.56055-10.6543 9.23828-10.6543Q8.90625-10.6543 8.71094-10.4443Q8.51562-10.2344 8.51562-9.90234L8.51562-7.79297L6.40625-7.79297Q6.06445-7.79297 5.85938-7.58789Q5.6543-7.38281 5.6543-7.05078Z"/>
  </g>
  <g transform="matrix(1 0 0 1 281.867 1933)">
   <path d="M11.709 2.91016Q13.75 2.91016 15.5518 2.12891Q17.3535 1.34766 18.7305-0.0292969Q20.1074-1.40625 20.8887-3.20801Q21.6699-5.00977 21.6699-7.05078Q21.6699-9.0918 20.8887-10.8936Q20.1074-12.6953 18.7305-14.0723Q17.3535-15.4492 15.5469-16.2305Q13.7402-17.0117 11.6992-17.0117Q9.6582-17.0117 7.85645-16.2305Q6.05469-15.4492 4.68262-14.0723Q3.31055-12.6953 2.5293-10.8936Q1.74805-9.0918 1.74805-7.05078Q1.74805-5.00977 2.5293-3.20801Q3.31055-1.40625 4.6875-0.0292969Q6.06445 1.34766 7.86621 2.12891Q9.66797 2.91016 11.709 2.91016ZM11.709 1.25Q9.98047 1.25 8.47656 0.605469Q6.97266-0.0390625 5.83496-1.17676Q4.69727-2.31445 4.05762-3.81836Q3.41797-5.32227 3.41797-7.05078Q3.41797-8.7793 4.05762-10.2832Q4.69727-11.7871 5.83008-12.9297Q6.96289-14.0723 8.4668-14.7119Q9.9707-15.3516 11.6992-15.3516Q13.4277-15.3516 14.9316-14.7119Q16.4355-14.0723 17.5781-12.9297Q18.7207-11.7871 19.3652-10.2832Q20.0098-8.7793 20.0098-7.05078Q20.0098-5.32227 19.3701-3.81836Q18.7305-2.31445 17.5928-1.17676Q16.4551-0.0390625 14.9463 0.605469Q13.4375 1.25 11.709 1.25ZM7.17773-7.05078Q7.17773-6.69922 7.41211-6.47461Q7.64648-6.25 8.01758-6.25L10.8887-6.25L10.8887-3.36914Q10.8887-2.99805 11.1133-2.76855Q11.3379-2.53906 11.6895-2.53906Q12.0605-2.53906 12.29-2.76855Q12.5195-2.99805 12.5195-3.36914L12.5195-6.25L15.4004-6.25Q15.7715-6.25 16.001-6.47461Q16.2305-6.69922 16.2305-7.05078Q16.2305-7.42188 16.001-7.65137Q15.7715-7.88086 15.4004-7.88086L12.5195-7.88086L12.5195-10.752Q12.5195-11.1328 12.29-11.3623Q12.0605-11.5918 11.6895-11.5918Q11.3379-11.5918 11.1133-11.3574Q10.8887-11.123 10.8887-10.752L10.8887-7.88086L8.01758-7.88086Q7.63672-7.88086 7.40723-7.65137Q7.17773-7.42188 7.17773-7.05078Z"/>
  </g>
  <g transform="matrix(1 0 0 1 305.646 1933)">
   <path d="M14.9707 5.66406Q17.0605 5.66406 18.96 5.01465Q20.8594 4.36523 22.4512 3.19336Q24.043 2.02148 25.2197 0.429688Q26.3965-1.16211 27.0459-3.06641Q27.6953-4.9707 27.6953-7.05078Q27.6953-9.14062 27.0459-11.04Q26.3965-12.9395 25.2197-14.5312Q24.043-16.123 22.4512-17.2998Q20.8594-18.4766 18.9551-19.126Q17.0508-19.7754 14.9609-19.7754Q12.8711-19.7754 10.9717-19.126Q9.07227-18.4766 7.48535-17.2998Q5.89844-16.123 4.72168-14.5312Q3.54492-12.9395 2.90039-11.04Q2.25586-9.14062 2.25586-7.05078Q2.25586-4.9707 2.90527-3.06641Q3.55469-1.16211 4.72656 0.429688Q5.89844 2.02148 7.49023 3.19336Q9.08203 4.36523 10.9814 5.01465Q12.8809 5.66406 14.9707 5.66406ZM14.9707 3.84766Q13.1641 3.84766 11.5283 3.2959Q9.89258 2.74414 8.53516 1.74805Q7.17773 0.751953 6.17676-0.610352Q5.17578-1.97266 4.62891-3.6084Q4.08203-5.24414 4.08203-7.05078Q4.08203-8.86719 4.62891-10.5029Q5.17578-12.1387 6.17188-13.501Q7.16797-14.8633 8.52539-15.8594Q9.88281-16.8555 11.5186-17.4023Q13.1543-17.9492 14.9609-17.9492Q16.7773-17.9492 18.4131-17.4023Q20.0488-16.8555 21.4111-15.8594Q22.7734-14.8633 23.7695-13.501Q24.7656-12.1387 25.3174-10.5029Q25.8691-8.86719 25.8691-7.05078Q25.8789-5.24414 25.332-3.6084Q24.7852-1.97266 23.7842-0.610352Q22.7832 0.751953 21.4209 1.74805Q20.0586 2.74414 18.4229 3.2959Q16.7871 3.84766 14.9707 3.84766ZM9.19922-7.05078Q9.19922-6.66992 9.45801-6.4209Q9.7168-6.17188 10.1172-6.17188L14.0625-6.17188L14.0625-2.2168Q14.0625-1.81641 14.3115-1.55762Q14.5605-1.29883 14.9512-1.29883Q15.3516-1.29883 15.6104-1.55273Q15.8691-1.80664 15.8691-2.2168L15.8691-6.17188L19.8242-6.17188Q20.2246-6.17188 20.4785-6.4209Q20.7324-6.66992 20.7324-7.05078Q20.7324-7.46094 20.4785-7.71484Q20.2246-7.96875 19.8242-7.96875L15.8691-7.96875L15.8691-11.9141Q15.8691-12.3242 15.6104-12.583Q15.3516-12.8418 14.9512-12.8418Q14.5605-12.8418 14.3115-12.583Q14.0625-12.3242 14.0625-11.9141L14.0625-7.96875L10.1172-7.96875Q9.70703-7.96875 9.45312-7.71484Q9.19922-7.46094 9.19922-7.05078Z"/>
  </g>
  <text style="stroke:none;fill:black;font-family:sans-serif;font-size:13;font-weight:bold;" transform="matrix(1 0 0 1 263 1953)">Design Variations</text>
  <text style="stroke:none;fill:black;font-family:sans-serif;font-size:13;" transform="matrix(1 0 0 1 263 1971)">Symbols are supported in up to nine weights and three scales.</text>
  <text style="stroke:none;fill:black;font-family:sans-serif;font-size:13;" transform="matrix(1 0 0 1 263 1989)">For optimal layout with text and other symbols, vertically align</text>
  <text style="stroke:none;fill:black;font-family:sans-serif;font-size:13;" transform="matrix(1 0 0 1 263 2007)">symbols with the adjacent text.</text>
  <line style="fill:none;stroke:#00AEEF;stroke-width:0.5;opacity:1.0;" x1="776" x2="776" y1="1919" y2="1933"/>
  <g transform="matrix(1 0 0 1 776 1933)">
   <path d="M3.31055 0.15625Q3.70117 0.15625 3.91602-0.00976562Q4.13086-0.175781 4.26758-0.585938L5.52734-4.0332L11.2891-4.0332L12.5488-0.585938Q12.6855-0.175781 12.9004-0.00976562Q13.1152 0.15625 13.4961 0.15625Q13.8867 0.15625 14.1162-0.0585938Q14.3457-0.273438 14.3457-0.644531Q14.3457-0.869141 14.2383-1.17188L9.6582-13.3691Q9.48242-13.8184 9.17969-14.043Q8.87695-14.2676 8.4082-14.2676Q7.5-14.2676 7.17773-13.3789L2.59766-1.16211Q2.49023-0.859375 2.49023-0.634766Q2.49023-0.263672 2.70996-0.0537109Q2.92969 0.15625 3.31055 0.15625ZM6.00586-5.51758L8.37891-12.0898L8.42773-12.0898L10.8008-5.51758Z"/>
  </g>
  <line style="fill:none;stroke:#00AEEF;stroke-width:0.5;opacity:1.0;" x1="793.197" x2="793.197" y1="1919" y2="1933"/>
  <text style="stroke:none;fill:black;font-family:sans-serif;font-size:13;font-weight:bold;" transform="matrix(1 0 0 1 776 1953)">Margins</text>
  <text style="stroke:none;fill:black;font-family:sans-serif;font-size:13;" transform="matrix(1 0 0 1 776 1971)">Leading and trailing margins on the left and right side of each symbol</text>
  <text style="stroke:none;fill:black;font-family:sans-serif;font-size:13;" transform="matrix(1 0 0 1 776 1989)">can be adjusted by modifying the x-location of the margin guidelines.</text>
  <text style="stroke:none;fill:black;font-family:sans-serif;font-size:13;" transform="matrix(1 0 0 1 776 2007)">Modifications are automatically applied proportionally to all</text>
  <text style="stroke:none;fill:black;font-family:sans-serif;font-size:13;" transform="matrix(1 0 0 1 776 2025)">scales and weights.</text>
  <g transform="matrix(1 0 0 1 1289 1933)">
   <path d="M2.8418 1.86523L4.54102 3.57422Q5.18555 4.22852 5.90332 4.17969Q6.62109 4.13086 7.31445 3.35938L18.0078-8.42773L17.041-9.4043L6.42578 2.27539Q6.16211 2.57812 5.89355 2.61719Q5.625 2.65625 5.27344 2.30469L4.10156 1.14258Q3.75 0.791016 3.79395 0.522461Q3.83789 0.253906 4.14062-0.0195312L15.6152-10.8203L14.6387-11.7871L3.04688-0.898438Q2.30469-0.214844 2.25098 0.498047Q2.19727 1.21094 2.8418 1.86523ZM9.25781-16.3281Q8.94531-16.0254 8.90625-15.6348Q8.86719-15.2441 9.04297-14.9512Q9.21875-14.6777 9.55566-14.541Q9.89258-14.4043 10.3809-14.5215Q11.4746-14.7754 12.5977-14.7314Q13.7207-14.6875 14.7949-13.9844L14.209-12.5293Q13.9551-11.9043 14.0674-11.4404Q14.1797-10.9766 14.5801-10.5664L16.875-8.25195Q17.2363-7.88086 17.5781-7.82227Q17.9199-7.76367 18.3398-7.8418L19.4043-8.03711L20.0684-7.36328L20.0293-6.80664Q20-6.43555 20.1221-6.12305Q20.2441-5.81055 20.6055-5.44922L21.3672-4.70703Q21.7285-4.3457 22.1533-4.33105Q22.5781-4.31641 22.9297-4.66797L25.8398-7.58789Q26.1914-7.93945 26.1816-8.35449Q26.1719-8.76953 25.8105-9.13086L25.0391-9.89258Q24.6875-10.2539 24.3799-10.3857Q24.0723-10.5176 23.7109-10.4883L23.1348-10.4395L22.4902-11.0742L22.7344-12.1973Q22.832-12.6172 22.6953-12.9834Q22.5586-13.3496 22.1191-13.7891L19.9219-15.9766Q18.6719-17.2168 17.2607-17.8369Q15.8496-18.457 14.4189-18.4814Q12.9883-18.5059 11.665-17.959Q10.3418-17.4121 9.25781-16.3281ZM10.752-15.957Q11.6602-16.6211 12.7002-16.9043Q13.7402-17.1875 14.8047-17.085Q15.8691-16.9824 16.8701-16.5137Q17.8711-16.0449 18.7012-15.2051L21.1328-12.793Q21.3086-12.6172 21.3525-12.4512Q21.3965-12.2852 21.3379-12.0312L21.0156-10.5469L22.5195-9.0625L23.5059-9.12109Q23.6914-9.13086 23.7891-9.09668Q23.8867-9.0625 24.0332-8.91602L24.6094-8.33984L22.168-5.89844L21.5918-6.47461Q21.4453-6.62109 21.4062-6.71875Q21.3672-6.81641 21.377-7.01172L21.4453-7.98828L19.9512-9.47266L18.4277-9.21875Q18.1836-9.16992 18.042-9.2041Q17.9004-9.23828 17.7148-9.41406L15.7129-11.416Q15.5176-11.5918 15.4932-11.7529Q15.4688-11.9141 15.5859-12.1875L16.4648-14.2773Q15.293-15.3711 13.8281-15.791Q12.3633-16.2109 10.8398-15.7617Q10.7227-15.7324 10.6885-15.8057Q10.6543-15.8789 10.752-15.957Z"/>
  </g>
  <text style="stroke:none;fill:black;font-family:sans-serif;font-size:13;font-weight:bold;" transform="matrix(1 0 0 1 1289 1953)">Exporting</text>
  <text style="stroke:none;fill:black;font-family:sans-serif;font-size:13;" transform="matrix(1 0 0 1 1289 1971)">Symbols should be outlined when exporting to ensure the</text>
  <text style="stroke:none;fill:black;font-family:sans-serif;font-size:13;" transform="matrix(1 0 0 1 1289 1989)">design is preserved when submitting to Xcode.</text>
  <text id="template-version" style="stroke:none;fill:black;font-family:sans-serif;font-size:13;text-anchor:end;" transform="matrix(1 0 0 1 3036 1933)">Template v.3.0</text>
  <text style="stroke:none;fill:black;font-family:sans-serif;font-size:13;text-anchor:end;" transform="matrix(1 0 0 1 3036 1951)">Requires Xcode 13 or greater</text>
  <text id="descriptive-name" style="stroke:none;fill:black;font-family:sans-serif;font-size:13;text-anchor:end;" transform="matrix(1 0 0 1 3036 1969)">Generated from LOGIT</text>
  <text style="stroke:none;fill:black;font-family:sans-serif;font-size:13;text-anchor:end;" transform="matrix(1 0 0 1 3036 1987)">Typeset at 100 points</text>
  <text style="stroke:none;fill:black;font-family:sans-serif;font-size:13;" transform="matrix(1 0 0 1 263 726)">Small</text>
  <text style="stroke:none;fill:black;font-family:sans-serif;font-size:13;" transform="matrix(1 0 0 1 263 1156)">Medium</text>
  <text style="stroke:none;fill:black;font-family:sans-serif;font-size:13;" transform="matrix(1 0 0 1 263 1586)">Large</text>
 </g>
 <g id="Guides">
  <g id="H-reference" style="fill:#27AAE1;stroke:none;" transform="matrix(1 0 0 1 339 696)">
   <path d="M0.993347 0L3.6377 0L29.3282-67.1326L30.0301-67.1326L30.0301-70.459L28.1227-70.459ZM11.6882-24.4797L46.9818-24.4797L46.2311-26.7288L12.4382-26.7288ZM55.1193 0L57.7637 0L30.6381-70.459L29.4327-70.459L29.4327-67.1326Z"/>
  </g>
  <line id="Baseline-S" style="fill:none;stroke:#27AAE1;opacity:1;stroke-width:0.5;" x1="263" x2="3036" y1="696" y2="696"/>
  <line id="Capline-S" style="fill:none;stroke:#27AAE1;opacity:1;stroke-width:0.5;" x1="263" x2="3036" y1="625.541" y2="625.541"/>
  <g id="H-reference" style="fill:#27AAE1;stroke:none;" transform="matrix(1 0 0 1 339 1126)">
   <path d="M0.993347 0L3.6377 0L29.3282-67.1326L30.0301-67.1326L30.0301-70.459L28.1227-70.459ZM11.6882-24.4797L46.9818-24.4797L46.2311-26.7288L12.4382-26.7288ZM55.1193 0L57.7637 0L30.6381-70.459L29.4327-70.459L29.4327-67.1326Z"/>
  </g>
  <line id="Baseline-M" style="fill:none;stroke:#27AAE1;opacity:1;stroke-width:0.5;" x1="263" x2="3036" y1="1126" y2="1126"/>
  <line id="Capline-M" style="fill:none;stroke:#27AAE1;opacity:1;stroke-width:0.5;" x1="263" x2="3036" y1="1055.54" y2="1055.54"/>
  <g id="H-reference" style="fill:#27AAE1;stroke:none;" transform="matrix(1 0 0 1 339 1556)">
   <path d="M0.993347 0L3.6377 0L29.3282-67.1326L30.0301-67.1326L30.0301-70.459L28.1227-70.459ZM11.6882-24.4797L46.9818-24.4797L46.2311-26.7288L12.4382-26.7288ZM55.1193 0L57.7637 0L30.6381-70.459L29.4327-70.459L29.4327-67.1326Z"/>
  </g>
  <line id="Baseline-L" style="fill:none;stroke:#27AAE1;opacity:1;stroke-width:0.5;" x1="263" x2="3036" y1="1556" y2="1556"/>
  <line id="Capline-L" style="fill:none;stroke:#27AAE1;opacity:1;stroke-width:0.5;" x1="263" x2="3036" y1="1485.54" y2="1485.54"/>
  <line id="left-margin-Ultralight-S" style="fill:none;stroke:#00AEEF;stroke-width:0.5;opacity:1.0;" x1="524.965" x2="524.965" y1="600.784" y2="720.121"/>
  <line id="right-margin-Ultralight-S" style="fill:none;stroke:#00AEEF;stroke-width:0.5;opacity:1.0;" x1="594.458" x2="594.458" y1="600.784" y2="720.121"/>
  <line id="left-margin-Regular-S" style="fill:none;stroke:#00AEEF;stroke-width:0.5;opacity:1.0;" x1="1413.13" x2="1413.13" y1="600.784" y2="720.121"/>
  <line id="right-margin-Regular-S" style="fill:none;stroke:#00AEEF;stroke-width:0.5;opacity:1.0;" x1="1486.56" x2="1486.56" y1="600.784" y2="720.121"/>
  <line id="left-margin-Black-S" style="fill:none;stroke:#00AEEF;stroke-width:0.5;opacity:1.0;" x1="2894.12" x2="2894.12" y1="600.784" y2="720.121"/>
  <line id="right-margin-Black-S" style="fill:none;stroke:#00AEEF;stroke-width:0.5;opacity:1.0;" x1="2972.68" x2="2972.68" y1="600.784" y2="720.121"/>
 </g>
 <g id="Symbols">
  <g id="Black-S" transform="matrix(1 0 0 1 2894.12 696)">
   <path d="M69.0909-45.4202C70.7218-47.4357 70.816-50.0776 69.3013-51.3159L42.4751-73.2481C40.9602-74.4866 38.406-73.8559 36.7749-71.8405C35.1438-69.8251 35.0494-67.1834 36.5643-65.9448L63.3905-44.0128C64.9057-42.774 67.4594-43.4051 69.0909-45.4202ZM69.5295-56.7661C70.6364-58.1337 70.7004-59.9264 69.6724-60.7669L51.6084-75.5355C50.5803-76.3759 48.8471-75.9478 47.7402-74.5802C46.6333-73.2126 46.5693-71.4199 47.5973-70.5795L65.6614-55.8109C66.6894-54.9705 68.4226-55.3985 69.5295-56.7661ZM66.5805-65.8991C66.9167-66.3146 66.9362-66.8592 66.6239-67.1146L58.9705-73.3718C58.6582-73.6271 58.1316-73.497 57.7953-73.0816C57.4589-72.666 57.4395-72.1214 57.7518-71.866L65.4052-65.6089C65.7176-65.3535 66.2442-65.4836 66.5805-65.8991ZM10.6271-39.6376C8.99619-37.622 8.90159-34.9803 10.4159-33.7422L37.2352-11.8158C38.7496-10.5776 41.3035-11.2087 42.9348-13.2242C44.566-15.2397 44.6608-17.8813 43.1463-19.1195L16.327-41.0459C14.8123-42.2843 12.2587-41.6529 10.6271-39.6376ZM10.1868-28.2924C9.07988-26.9247 9.01558-25.1321 10.0433-24.2918L28.1027-9.52711C29.1304-8.68694 30.8635-9.1152 31.9705-10.4829C33.0774-11.8506 33.1417-13.6432 32.114-14.4834L14.0546-29.2481C13.0269-30.0883 11.2938-29.6601 10.1868-28.2924ZM13.134-19.1605C12.7978-18.7449 12.7782-18.2003 13.0904-17.9451L20.7419-11.6895C21.0541-11.4342 21.5807-11.5644 21.917-11.9799C22.2533-12.3954 22.2728-12.9401 21.9606-13.1954L14.3092-19.4509C13.9969-19.7061 13.4704-19.576 13.134-19.1605ZM36.6249-44.8338C36.6276-44.8254 36.6303-44.817 36.6329-44.8087L36.63-44.8178L36.6249-44.8338ZM39.0165-41.2816L39.0096-41.2872L39.0028-41.2928C39.0073-41.2891 39.0119-41.2853 39.0165-41.2816ZM39.0302-41.2704C39.0279-41.2722 39.0256-41.2741 39.0233-41.276L39.0165-41.2816C39.0188-41.2797 39.0211-41.2778 39.0233-41.276L39.0302-41.2704ZM38.95-41.3366C38.9621-41.3264 38.9743-41.3164 38.9863-41.3063C38.9742-41.3165 38.962-41.3265 38.95-41.3366ZM39.1006-41.2137C39.0947-41.2184 39.0889-41.223 39.0832-41.2276C39.089-41.223 39.0948-41.2183 39.1006-41.2137ZM38.9206-41.3614C38.9276-41.3554 38.9346-41.3495 38.9416-41.3437C38.9345-41.3496 38.9276-41.3554 38.9206-41.3614ZM38.8877-41.3893C38.8943-41.3837 38.9011-41.3779 38.9079-41.3721C38.9011-41.3779 38.8944-41.3836 38.8877-41.3893ZM39.1508-41.1743C39.1474-41.1768 39.144-41.1795 39.1406-41.1822L39.1336-41.1877C39.1394-41.1832 39.1451-41.1787 39.1508-41.1743ZM38.8744-41.4008L38.8748-41.4004L38.8744-41.4008L38.8726-41.4023L38.8744-41.4008ZM38.7752-41.4877C38.8022-41.4635 38.8294-41.4396 38.8569-41.4159C38.8294-41.4396 38.8022-41.4636 38.7752-41.4877ZM39.2627-41.0886C39.2591-41.0913 39.2557-41.0939 39.2522-41.0965L39.2452-41.1018C39.251-41.0974 39.2568-41.0931 39.2627-41.0886ZM38.7379-41.5211C38.7439-41.5157 38.75-41.5102 38.756-41.5047C38.75-41.5102 38.744-41.5157 38.7379-41.5211ZM39.3155-41.0493L39.3154-41.0494L39.3155-41.0493L39.3225-41.0442L39.3155-41.0493ZM38.7101-41.5464L38.7113-41.5453L38.7101-41.5464L38.7069-41.5493L38.7101-41.5464ZM39.6275-40.8316C39.5341-40.8932 39.4419-40.9572 39.3508-41.0235C39.4419-40.9572 39.5342-40.8932 39.6275-40.8316ZM38.6907-41.5641L38.6941-41.561L38.6907-41.5641L38.6842-41.5701L38.6907-41.5641ZM38.6183-41.6317C38.6277-41.6227 38.6373-41.6137 38.6469-41.6047C38.6373-41.6137 38.6278-41.6227 38.6183-41.6317ZM38.5991-41.6498C38.602-41.6471 38.6048-41.6443 38.6077-41.6417L38.6013-41.6476L38.5991-41.6498ZM38.5676-41.68C38.5759-41.672 38.5844-41.6638 38.5928-41.6557C38.5844-41.6638 38.576-41.6719 38.5676-41.68ZM38.495-41.7508C38.5144-41.7316 38.5338-41.7127 38.5533-41.6937C38.5338-41.7127 38.5143-41.7317 38.495-41.7508ZM38.452-41.7937C38.4642-41.7814 38.4765-41.7691 38.4888-41.7569C38.4765-41.7691 38.4642-41.7814 38.452-41.7937ZM38.3892-41.8576C38.4051-41.8412 38.421-41.825 38.437-41.8088C38.4209-41.825 38.405-41.8413 38.3892-41.8576ZM39.9005-40.6598C39.8174-40.7096 39.735-40.7612 39.6533-40.8147C39.735-40.7613 39.8174-40.7097 39.9005-40.6598ZM38.179-42.0834C38.2402-42.0148 38.3028-41.9472 38.3669-41.8807C38.3028-41.9472 38.2402-42.0149 38.179-42.0834ZM39.9301-40.6422L39.9154-40.651L39.9006-40.6598C39.9104-40.6539 39.9203-40.6481 39.9301-40.6422ZM38.083-42.193C38.1112-42.1602 38.1396-42.1276 38.1685-42.0952C38.1396-42.1276 38.1112-42.1602 38.083-42.193ZM40.064-40.5647C40.046-40.5749 40.0279-40.5852 40.0098-40.5957C40.0279-40.5852 40.0459-40.5749 40.064-40.5647ZM38.0165-42.2717C38.0384-42.2454 38.0606-42.2191 38.083-42.1931C38.0607-42.2191 38.0385-42.2453 38.0165-42.2717ZM37.9281-42.3798C37.9463-42.3571 37.9648-42.3343 37.9834-42.3116C37.9649-42.3343 37.9464-42.357 37.9281-42.3798ZM40.3049-40.4346L40.3048-40.4347L40.3049-40.4346ZM37.8979-42.4177L37.9002-42.4148L37.8979-42.4177L37.8978-42.4177L37.8979-42.4177ZM37.8663-42.4579L37.872-42.4505L37.8663-42.4579L37.8585-42.4679L37.8663-42.4579ZM37.8065-42.5357C37.8124-42.5278 37.8185-42.5199 37.8245-42.512L37.8142-42.5255L37.8065-42.5357ZM37.7834-42.5663C37.7868-42.5617 37.7902-42.5572 37.7936-42.5527L37.7834-42.5663ZM37.6361-42.7695C37.6715-42.7189 37.7075-42.6687 37.7442-42.6189C37.7075-42.6688 37.6714-42.7189 37.6361-42.7695ZM37.5332-42.9206C37.5647-42.8732 37.5967-42.8261 37.6294-42.7793C37.5967-42.8261 37.5647-42.8732 37.5332-42.9206ZM37.4553-43.0407C37.4764-43.0075 37.4978-42.9744 37.5195-42.9414C37.4978-42.9744 37.4764-43.0075 37.4553-43.0407ZM36.7003-44.6054C36.8901-44.0592 37.142-43.5339 37.4552-43.0409C37.142-43.5339 36.8901-44.0593 36.7003-44.6054ZM36.666-44.7066C36.6696-44.6957 36.6732-44.6848 36.6769-44.6738C36.6732-44.6849 36.6696-44.6958 36.666-44.7066ZM42.8467-39.6619L42.8343-39.6633L42.8467-39.6619L42.863-39.66L42.8467-39.6619ZM42.8798-39.6581L42.8796-39.6581C42.8796-39.6581 42.8798-39.6581 42.8798-39.6581ZM42.946-39.651L42.9354-39.6521L42.946-39.651L42.9521-39.6504L42.946-39.651ZM37.0752-45.2446L36.9502-45.2579C36.9919-45.2538 37.0336-45.2494 37.0752-45.2446ZM43.2582-40.2142L43.2653-40.1931C43.2517-40.2343 43.2377-40.2756 43.2233-40.3167L43.2582-40.2142ZM37.2231-45.226C37.1802-45.2318 37.1372-45.2372 37.0943-45.2424L37.1024-45.2413L37.2231-45.226ZM40.9129-43.6239L41.0275-43.5283L41.0646-43.4961L41.1397-43.4306L41.183-43.3916L41.2497-43.331L41.2947-43.2889L41.3574-43.2295L41.4025-43.1857L41.4629-43.126L41.5073-43.0813L41.5665-43.0203L41.6093-42.9755L41.6684-42.9121L41.7087-42.8683L41.7698-42.7998L41.8056-42.7595L41.8775-42.6756L41.9-42.6493L41.9913-42.5381L42.0184-42.5039L42.0807-42.4248L42.1154-42.3793L42.1676-42.3101L42.2042-42.2603L42.2523-42.1938L42.289-42.1417L42.3345-42.076L42.3707-42.0226L42.4145-41.9566L42.4497-41.9025L42.4923-41.8355L42.5261-41.7815L42.5683-41.7118L42.5999-41.6592L42.644-41.5832L42.6713-41.5359L42.7386-41.414L42.7592-41.3752L42.8049-41.2886L42.8324-41.2344L42.8687-41.1619L42.897-41.1036L42.9301-41.0341L42.958-40.9738L42.9892-40.9052L43.0162-40.8439L43.0459-40.7749L43.0717-40.7134L43.1003-40.6431L43.1247-40.5821L43.1527-40.5093L43.1751-40.4502L43.2037-40.3713L43.2228-40.3182C42.7819-41.5769 42.0103-42.7241 40.9198-43.6183L40.9129-43.6239ZM38.3845-44.9736C38.0044-45.0887 37.6169-45.1726 37.2259-45.2257L37.2693-45.2194L37.3643-45.2055L37.4158-45.1971L37.5041-45.1825L37.558-45.1728L37.6438-45.1567L37.6984-45.1459L37.7835-45.1283L37.8376-45.1165L37.9238-45.0968L37.9759-45.0845L38.0654-45.0623L38.1135-45.05L38.2119-45.0233L38.2504-45.0128L38.3845-44.9736ZM40.9129-43.6239C40.145-44.2522 39.2871-44.6997 38.3883-44.9725L38.5242-44.9298L38.5558-44.9192L38.6589-44.8845L38.7049-44.8682L38.793-44.8365L38.8441-44.8174L38.9267-44.7859L38.9798-44.7649L39.0598-44.7324L39.1134-44.71L39.1926-44.6759L39.2457-44.6526L39.3257-44.6163L39.3767-44.5928L39.4605-44.5526L39.5065-44.5304L39.6041-44.4811L39.6352-44.4653L39.7633-44.3973L39.7888-44.3831L39.8899-44.3268L39.9345-44.3009L40.0154-44.2536L40.0653-44.2234L40.14-44.1776L40.1917-44.1449L40.2637-44.0987L40.3159-44.0643L40.3867-44.0168L40.4382-43.9814L40.509-43.9317L40.5591-43.896L40.6317-43.8426L40.6784-43.808L40.7575-43.7473L40.7964-43.7173L40.9129-43.6239ZM39.5985-45.3979C39.6067-45.3898 39.615-45.3817 39.6232-45.3735C39.6563-45.3409 39.6896-45.3084 39.723-45.2758C39.7914-45.2093 39.8604-45.143 39.9301-45.0769C39.8604-45.143 39.7914-45.2093 39.723-45.2758C39.6896-45.3084 39.6563-45.3409 39.6232-45.3735L39.6189-45.3778L39.5985-45.3979ZM39.5758-45.4204C39.572-45.4242 39.5682-45.4279 39.5644-45.4317L39.5531-45.443C39.536-45.4599 39.5189-45.477 39.5019-45.494L39.4966-45.4992L39.4854-45.5105C39.4909-45.505 39.4964-45.4995 39.5019-45.494C39.5189-45.477 39.536-45.4599 39.5531-45.443C39.5631-45.433 39.5731-45.4231 39.5832-45.4131L39.5758-45.4204ZM39.4782-45.5177C39.4693-45.5267 39.4605-45.5355 39.4517-45.5443L39.4406-45.5557C39.4368-45.5594 39.4331-45.5632 39.4294-45.5669L39.4182-45.5782L39.407-45.5895C39.4033-45.5933 39.3996-45.597 39.3959-45.6008L39.3848-45.6121L39.3736-45.6234C39.3699-45.6272 39.3662-45.631 39.3625-45.6347L39.3514-45.6461C39.3477-45.6498 39.344-45.6536 39.3403-45.6574L39.3292-45.6687C39.3379-45.6598 39.3466-45.651 39.3552-45.6422L39.3625-45.6347C39.3662-45.631 39.3699-45.6272 39.3736-45.6234L39.3848-45.6121L39.3959-45.6008C39.3996-45.597 39.4033-45.5933 39.407-45.5895L39.4182-45.5782C39.4182-45.5782 39.4294-45.5669 39.4294-45.5669C39.4331-45.5632 39.4368-45.5594 39.4406-45.5557L39.4517-45.5443C39.4605-45.5355 39.4693-45.5267 39.4782-45.5177ZM40.3657-47.1219L40.3431-47.143L40.5244-46.9745L40.7077-46.8063C40.7077-46.8063 40.7178-46.797 40.7178-46.797L40.7913-46.7302L40.8102-46.7131L40.8774-46.6524L40.8558-46.6718C40.8466-46.6802 40.8373-46.6885 40.8282-46.6968L40.8102-46.7131L40.8005-46.7219L40.7913-46.7302L40.7729-46.7469C40.7637-46.7552 40.7545-46.7636 40.7453-46.7719C40.7453-46.7719 40.7178-46.797 40.7178-46.797L40.7077-46.8063L40.5244-46.9745C40.4712-47.0236 40.4184-47.0727 40.3657-47.1219ZM40.3093-47.1747L40.3262-47.1588C40.3262-47.1588 40.3093-47.1747 40.3093-47.1747ZM38.2483-46.8625C38.5838-46.4614 38.9434-46.0636 39.3258-45.6722C38.9434-46.0636 38.5838-46.4614 38.2483-46.8625L39.2977-48.1597C39.6233-47.8303 39.9607-47.5017 40.3093-47.1747C39.9607-47.5017 39.6233-47.8303 39.2977-48.1597L45.0782-55.3051C46.4945-55.1667 47.8748-54.629 49.0463-53.6709L49.0469-53.6704C50.2147-52.715 51.0177-51.4701 51.4416-50.1081L46.4458-43.9328L46.4231-43.9492L46.4458-43.9328L43.3094-40.0557C43.297-40.0957 43.2842-40.1356 43.2712-40.1753L43.3094-40.0557L34.8511-29.6005C33.4347-29.739 32.054-30.2767 30.8825-31.2351C29.7147-32.1905 28.9117-33.4354 28.4878-34.7975L38.2483-46.8625Z"/>
  </g>
  <g id="Regular-S" transform="matrix(1 0 0 1 1413.13 696)">
   <path d="M67.5089-44.7675C69.1398-46.783 69.234-49.4249 67.7193-50.6632L40.8931-72.5954C39.3782-73.8339 36.824-73.2032 35.1929-71.1878C33.5618-69.1724 33.4674-66.5306 34.9823-65.2921L61.8085-43.36C63.3237-42.1213 65.8774-42.7523 67.5089-44.7675ZM67.9475-56.1134C69.0544-57.481 69.1184-59.2737 68.0904-60.1142L50.0264-74.8827C48.9983-75.7231 47.2651-75.2951 46.1582-73.9275C45.0513-72.5599 44.9873-70.7672 46.0153-69.9268L64.0794-55.1582C65.1074-54.3178 66.8406-54.7458 67.9475-56.1134ZM64.9985-65.2464C65.3347-65.6619 65.3542-66.2065 65.0419-66.4619L57.3885-72.7191C57.0762-72.9744 56.5496-72.8443 56.2133-72.4288C55.8769-72.0133 55.8575-71.4686 56.1698-71.2133L63.8232-64.9561C64.1356-64.7008 64.6622-64.8308 64.9985-65.2464ZM9.04514-38.9849C7.41419-36.9693 7.31959-34.3275 8.83386-33.0895L35.6532-11.163C37.1676-9.92486 39.7215-10.5559 41.3528-12.5715C42.984-14.587 43.0788-17.2286 41.5643-18.4668L14.745-40.3932C13.2303-41.6316 10.6767-41.0002 9.04514-38.9849ZM8.60482-27.6396C7.49788-26.2719 7.43358-24.4794 8.4613-23.6391L26.5207-8.87438C27.5484-8.03422 29.2815-8.46248 30.3885-9.83017C31.4954-11.1979 31.5597-12.9904 30.532-13.8307L12.4726-28.5954C11.4449-29.4356 9.71177-29.0073 8.60482-27.6396ZM11.552-18.5077C11.2158-18.0922 11.1962-17.5476 11.5084-17.2923L19.1599-11.0368C19.4721-10.7815 19.9987-10.9117 20.335-11.3272C20.6713-11.7427 20.6908-12.2873 20.3786-12.5426L12.7272-18.7982C12.4149-19.0534 11.8884-18.9233 11.552-18.5077ZM35.0429-44.1811C35.0456-44.1727 35.0483-44.1643 35.0509-44.156L35.048-44.1651L35.0429-44.1811ZM37.4345-40.6289L37.4276-40.6345L37.4208-40.6401C37.4253-40.6363 37.4299-40.6326 37.4345-40.6289ZM37.4482-40.6177C37.4459-40.6195 37.4436-40.6214 37.4413-40.6233L37.4345-40.6289C37.4368-40.627 37.4391-40.6251 37.4413-40.6233L37.4482-40.6177ZM37.368-40.6839C37.3801-40.6737 37.3923-40.6636 37.4043-40.6536C37.3922-40.6637 37.38-40.6738 37.368-40.6839ZM37.5186-40.561C37.5127-40.5657 37.5069-40.5703 37.5012-40.5749C37.507-40.5702 37.5128-40.5656 37.5186-40.561ZM37.3386-40.7086C37.3456-40.7027 37.3526-40.6968 37.3596-40.6909C37.3525-40.6969 37.3456-40.7027 37.3386-40.7086ZM37.3057-40.7365C37.3123-40.731 37.3191-40.7252 37.3259-40.7194C37.3191-40.7251 37.3124-40.7309 37.3057-40.7365ZM37.5688-40.5215C37.5654-40.5241 37.562-40.5268 37.5586-40.5295L37.5516-40.5349C37.5574-40.5304 37.5631-40.526 37.5688-40.5215ZM37.2924-40.7481L37.2928-40.7477L37.2924-40.7481L37.2906-40.7496L37.2924-40.7481ZM37.1932-40.835C37.2202-40.8108 37.2474-40.7869 37.2749-40.7632C37.2474-40.7869 37.2202-40.8109 37.1932-40.835ZM37.6807-40.4359C37.6771-40.4385 37.6737-40.4412 37.6702-40.4438L37.6632-40.4491C37.669-40.4447 37.6748-40.4403 37.6807-40.4359ZM37.1559-40.8684C37.1619-40.863 37.168-40.8575 37.174-40.852C37.168-40.8575 37.162-40.8629 37.1559-40.8684ZM37.7335-40.3966L37.7334-40.3967L37.7335-40.3966L37.7405-40.3915L37.7335-40.3966ZM37.1281-40.8936L37.1293-40.8926L37.1281-40.8936L37.1249-40.8966L37.1281-40.8936ZM38.0455-40.1789C37.9521-40.2405 37.8599-40.3045 37.7688-40.3708C37.8599-40.3044 37.9522-40.2405 38.0455-40.1789ZM37.1087-40.9114L37.1121-40.9083L37.1087-40.9114L37.1022-40.9173L37.1087-40.9114ZM37.0363-40.9789C37.0457-40.97 37.0553-40.961 37.0649-40.952C37.0553-40.961 37.0458-40.9699 37.0363-40.9789ZM37.0171-40.9971C37.02-40.9944 37.0228-40.9916 37.0257-40.9889L37.0193-40.9949L37.0171-40.9971ZM36.9856-41.0273C36.9939-41.0192 37.0024-41.0111 37.0108-41.003C37.0024-41.0111 36.994-41.0192 36.9856-41.0273ZM36.913-41.098C36.9324-41.0789 36.9518-41.0599 36.9713-41.041C36.9518-41.0599 36.9323-41.079 36.913-41.098ZM36.87-41.141C36.8822-41.1286 36.8945-41.1164 36.9068-41.1042C36.8945-41.1164 36.8822-41.1287 36.87-41.141ZM36.8072-41.2049C36.8231-41.1885 36.839-41.1722 36.855-41.1561C36.8389-41.1723 36.823-41.1886 36.8072-41.2049ZM38.3185-40.0071C38.2354-40.0569 38.153-40.1085 38.0713-40.1619C38.153-40.1086 38.2354-40.0569 38.3185-40.0071ZM36.597-41.4306C36.6582-41.362 36.7208-41.2945 36.7849-41.2279C36.7208-41.2945 36.6582-41.3621 36.597-41.4306ZM38.3481-39.9895L38.3334-39.9982L38.3186-40.007C38.3284-40.0012 38.3383-39.9954 38.3481-39.9895ZM36.501-41.5402C36.5292-41.5075 36.5576-41.4749 36.5865-41.4424C36.5576-41.4749 36.5292-41.5075 36.501-41.5402ZM38.482-39.912C38.464-39.9222 38.4459-39.9325 38.4278-39.943C38.4459-39.9325 38.4639-39.9222 38.482-39.912ZM36.4345-41.6189C36.4564-41.5927 36.4786-41.5664 36.501-41.5404C36.4787-41.5664 36.4565-41.5926 36.4345-41.6189ZM36.3461-41.7271C36.3643-41.7044 36.3828-41.6816 36.4014-41.6589C36.3829-41.6815 36.3644-41.7043 36.3461-41.7271ZM38.7229-39.7819L38.7228-39.782L38.7229-39.7819ZM36.3159-41.7649L36.3182-41.7621L36.3159-41.7649L36.3158-41.765L36.3159-41.7649ZM36.2843-41.8052L36.29-41.7978L36.2843-41.8052L36.2765-41.8152L36.2843-41.8052ZM36.2245-41.883C36.2304-41.875 36.2365-41.8672 36.2425-41.8592L36.2322-41.8728L36.2245-41.883ZM36.2014-41.9136C36.2048-41.909 36.2082-41.9045 36.2116-41.8999L36.2014-41.9136ZM36.0541-42.1168C36.0895-42.0662 36.1255-42.0159 36.1622-41.9662C36.1255-42.016 36.0894-42.0662 36.0541-42.1168ZM35.9512-42.2679C35.9827-42.2204 36.0147-42.1733 36.0474-42.1265C36.0147-42.1734 35.9827-42.2205 35.9512-42.2679ZM35.8733-42.388C35.8944-42.3548 35.9158-42.3217 35.9375-42.2887C35.9158-42.3217 35.8944-42.3548 35.8733-42.388ZM35.1183-43.9527C35.3081-43.4064 35.56-42.8812 35.8732-42.3881C35.56-42.8812 35.3081-43.4065 35.1183-43.9527ZM35.084-44.0539C35.0876-44.0429 35.0912-44.032 35.0949-44.0211C35.0912-44.0322 35.0876-44.043 35.084-44.0539ZM41.2647-39.0092L41.2523-39.0106L41.2647-39.0092L41.281-39.0072L41.2647-39.0092ZM41.2978-39.0053L41.2976-39.0054C41.2976-39.0054 41.2978-39.0053 41.2978-39.0053ZM41.364-38.9983L41.3534-38.9994L41.364-38.9983L41.3701-38.9977L41.364-38.9983ZM35.4932-44.5918L35.3682-44.6052C35.4099-44.6011 35.4516-44.5967 35.4932-44.5918ZM41.6762-39.5615L41.6833-39.5404C41.6697-39.5816 41.6557-39.6229 41.6413-39.664L41.6762-39.5615ZM35.6411-44.5733C35.5982-44.5791 35.5552-44.5845 35.5123-44.5896L35.5204-44.5886L35.6411-44.5733ZM39.3309-42.9712L39.4455-42.8755L39.4826-42.8434L39.5577-42.7779L39.601-42.7389L39.6677-42.6783L39.7127-42.6362L39.7754-42.5767L39.8205-42.533L39.8809-42.4733L39.9253-42.4286L39.9845-42.3676L40.0273-42.3228L40.0864-42.2594L40.1267-42.2156L40.1878-42.1471L40.2236-42.1068L40.2955-42.0229L40.318-41.9966L40.4093-41.8854L40.4364-41.8512L40.4987-41.7721L40.5334-41.7266L40.5856-41.6573L40.6222-41.6076L40.6703-41.5411L40.707-41.489L40.7525-41.4233L40.7887-41.3699L40.8325-41.3039L40.8677-41.2498L40.9103-41.1827L40.9441-41.1287L40.9863-41.0591L41.0179-41.0065L41.062-40.9305L41.0893-40.8832L41.1566-40.7613L41.1772-40.7225L41.2229-40.6359L41.2504-40.5817L41.2867-40.5092L41.315-40.4509L41.3481-40.3814L41.376-40.3211L41.4072-40.2525L41.4342-40.1912L41.4639-40.1222L41.4897-40.0607L41.5183-39.9904L41.5427-39.9294L41.5707-39.8566L41.5931-39.7975L41.6217-39.7186L41.6408-39.6654C41.1999-40.9242 40.4283-42.0713 39.3378-42.9656L39.3309-42.9712ZM36.8025-44.3209C36.4224-44.4359 36.0349-44.5198 35.6439-44.573L35.6873-44.5667L35.7823-44.5527L35.8338-44.5444L35.9221-44.5297L35.976-44.5201L36.0618-44.504L36.1164-44.4932L36.2015-44.4755L36.2556-44.4638L36.3418-44.4441L36.3939-44.4318L36.4834-44.4095L36.5315-44.3972L36.6299-44.3706L36.6684-44.3601L36.8025-44.3209ZM39.3309-42.9712C38.563-43.5995 37.7051-44.047 36.8063-44.3197L36.9422-44.277L36.9738-44.2665L37.0769-44.2318L37.1229-44.2155L37.211-44.1838L37.2621-44.1647L37.3447-44.1332L37.3978-44.1121L37.4778-44.0797L37.5314-44.0573L37.6106-44.0232L37.6637-43.9999L37.7437-43.9636L37.7947-43.9401L37.8785-43.8999L37.9245-43.8776L38.0221-43.8284L38.0532-43.8126L38.1813-43.7446L38.2068-43.7304L38.3079-43.6741L38.3525-43.6482L38.4334-43.6009L38.4833-43.5707L38.558-43.5248L38.6097-43.4922L38.6817-43.4459L38.7339-43.4116L38.8047-43.3641L38.8562-43.3287L38.927-43.279L38.9771-43.2433L39.0497-43.1899L39.0964-43.1552L39.1755-43.0946L39.2144-43.0646L39.3309-42.9712ZM38.0165-44.7452C38.0247-44.737 38.033-44.729 38.0412-44.7208C38.0743-44.6882 38.1076-44.6556 38.141-44.6231C38.2094-44.5565 38.2784-44.4903 38.3481-44.4242C38.2784-44.4903 38.2094-44.5565 38.141-44.6231C38.1076-44.6556 38.0743-44.6882 38.0412-44.7208L38.0369-44.7251L38.0165-44.7452ZM37.9938-44.7677C37.99-44.7714 37.9862-44.7752 37.9824-44.779L37.9711-44.7902C37.954-44.8072 37.9369-44.8243 37.9199-44.8412L37.9146-44.8465L37.9034-44.8578C37.9089-44.8523 37.9144-44.8468 37.9199-44.8412C37.9369-44.8243 37.954-44.8072 37.9711-44.7902C37.9811-44.7803 37.9911-44.7704 38.0012-44.7603L37.9938-44.7677ZM37.8962-44.865C37.8873-44.8739 37.8785-44.8828 37.8697-44.8916L37.8586-44.9029C37.8548-44.9067 37.8511-44.9105 37.8474-44.9142L37.8362-44.9255L37.825-44.9368C37.8213-44.9406 37.8176-44.9443 37.8139-44.9481L37.8028-44.9594L37.7916-44.9707C37.7879-44.9745 37.7842-44.9783 37.7805-44.982L37.7694-44.9933C37.7657-44.9971 37.762-45.0009 37.7583-45.0047L37.7472-45.016C37.7559-45.0071 37.7646-44.9983 37.7732-44.9894L37.7805-44.982C37.7842-44.9783 37.7879-44.9745 37.7916-44.9707L37.8028-44.9594L37.8139-44.9481C37.8176-44.9443 37.8213-44.9406 37.825-44.9368L37.8362-44.9255C37.8362-44.9255 37.8474-44.9142 37.8474-44.9142C37.8511-44.9105 37.8548-44.9067 37.8586-44.9029L37.8697-44.8916C37.8785-44.8828 37.8873-44.8739 37.8962-44.865ZM38.7837-46.4692L38.7611-46.4903L38.9424-46.3218L39.1257-46.1536C39.1257-46.1536 39.1358-46.1443 39.1358-46.1443L39.2093-46.0775L39.2282-46.0604L39.2954-45.9997L39.2738-46.0191C39.2646-46.0274 39.2553-46.0358 39.2462-46.0441L39.2282-46.0604L39.2185-46.0692L39.2093-46.0775L39.1909-46.0942C39.1817-46.1025 39.1725-46.1109 39.1633-46.1192C39.1633-46.1192 39.1358-46.1443 39.1358-46.1443L39.1257-46.1536L38.9424-46.3218C38.8892-46.3709 38.8364-46.42 38.7837-46.4692ZM38.7273-46.5219L38.7442-46.5061C38.7442-46.5061 38.7273-46.5219 38.7273-46.5219ZM36.6663-46.2098C37.0018-45.8087 37.3614-45.4109 37.7438-45.0195C37.3614-45.4109 37.0018-45.8087 36.6663-46.2098L37.7157-47.507C38.0413-47.1776 38.3787-46.8489 38.7273-46.5219C38.3787-46.8489 38.0413-47.1776 37.7157-47.507L43.4962-54.6524C44.9125-54.5139 46.2928-53.9763 47.4643-53.0182L47.4649-53.0177C48.6327-52.0623 49.4357-50.8174 49.8596-49.4553L44.8638-43.2801L44.8411-43.2965L44.8638-43.2801L41.7274-39.403C41.715-39.443 41.7022-39.4829 41.6892-39.5226L41.7274-39.403L33.2691-28.9477C31.8527-29.0862 30.472-29.624 29.3005-30.5823C28.1327-31.5378 27.3297-32.7827 26.9058-34.1448L36.6663-46.2098Z"/>
  </g>
  <g id="Ultralight-S" transform="matrix(1 0 0 1 524.965 696)">
   <path d="M65.1859-45.4323C66.8168-47.4478 66.911-50.0897 65.3963-51.3281L38.5701-73.2602C37.0552-74.4987 34.501-73.868 32.8699-71.8526C31.2388-69.8372 31.1444-67.1955 32.6593-65.9569L59.4855-44.0249C61.0007-42.7861 63.5544-43.4172 65.1859-45.4323ZM65.6245-56.7783C66.7314-58.1459 66.7954-59.9385 65.7674-60.779L47.7034-75.5476C46.6753-76.388 44.9421-75.96 43.8352-74.5923C42.7283-73.2247 42.6643-71.4321 43.6923-70.5916L61.7564-55.823C62.7844-54.9826 64.5176-55.4106 65.6245-56.7783ZM62.6755-65.9112C63.0117-66.3267 63.0312-66.8713 62.7189-67.1267L55.0655-73.3839C54.7532-73.6392 54.2266-73.5091 53.8903-73.0937C53.5539-72.6781 53.5345-72.1335 53.8468-71.8781L61.5002-65.621C61.8126-65.3656 62.3392-65.4957 62.6755-65.9112ZM6.72214-39.6498C5.09119-37.6341 4.99659-34.9924 6.51086-33.7544L33.3302-11.8279C34.8446-10.5897 37.3985-11.2208 39.0298-13.2363C40.661-15.2518 40.7558-17.8934 39.2413-19.1316L12.422-41.058C10.9073-42.2964 8.35374-41.665 6.72214-39.6498ZM6.28182-28.3045C5.17488-26.9368 5.11058-25.1442 6.1383-24.304L24.1977-9.53922C25.2254-8.69905 26.9585-9.12731 28.0655-10.495C29.1724-11.8627 29.2367-13.6553 28.209-14.4955L10.1496-29.2603C9.12186-30.1004 7.38877-29.6722 6.28182-28.3045ZM9.229-19.1726C8.89276-18.757 8.87322-18.2125 9.18542-17.9572L16.8369-11.7016C17.1491-11.4463 17.6757-11.5765 18.012-11.992C18.3483-12.4076 18.3678-12.9522 18.0556-13.2075L10.4042-19.463C10.0919-19.7182 9.56537-19.5882 9.229-19.1726ZM32.7199-44.8459C32.7226-44.8375 32.7253-44.8291 32.7279-44.8208L32.725-44.8299L32.7199-44.8459ZM35.1115-41.2937L35.1046-41.2993L35.0978-41.3049C35.1023-41.3012 35.1069-41.2974 35.1115-41.2937ZM35.1252-41.2825C35.1229-41.2844 35.1206-41.2862 35.1183-41.2881L35.1115-41.2937C35.1138-41.2918 35.1161-41.2899 35.1183-41.2881L35.1252-41.2825ZM35.045-41.3487C35.0571-41.3385 35.0693-41.3285 35.0813-41.3184C35.0692-41.3286 35.057-41.3386 35.045-41.3487ZM35.1956-41.2258C35.1897-41.2305 35.1839-41.2351 35.1782-41.2397C35.184-41.2351 35.1898-41.2305 35.1956-41.2258ZM35.0156-41.3735C35.0226-41.3676 35.0296-41.3616 35.0366-41.3558C35.0295-41.3617 35.0226-41.3676 35.0156-41.3735ZM34.9827-41.4014C34.9893-41.3958 34.9961-41.39 35.0029-41.3842C34.9961-41.39 34.9894-41.3957 34.9827-41.4014ZM35.2458-41.1864C35.2424-41.1889 35.239-41.1916 35.2356-41.1943L35.2286-41.1998C35.2344-41.1953 35.2401-41.1908 35.2458-41.1864ZM34.9694-41.4129L34.9698-41.4125L34.9694-41.4129L34.9676-41.4145L34.9694-41.4129ZM34.8702-41.4998C34.8972-41.4756 34.9244-41.4517 34.9519-41.428C34.9244-41.4518 34.8972-41.4757 34.8702-41.4998ZM35.3577-41.1007C35.3541-41.1034 35.3507-41.106 35.3472-41.1086L35.3402-41.1139C35.346-41.1095 35.3518-41.1052 35.3577-41.1007ZM34.8329-41.5333C34.8389-41.5278 34.845-41.5223 34.851-41.5169C34.845-41.5223 34.839-41.5278 34.8329-41.5333ZM35.4105-41.0615L35.4104-41.0615L35.4105-41.0615L35.4175-41.0563L35.4105-41.0615ZM34.8051-41.5585L34.8063-41.5574L34.8051-41.5585L34.8019-41.5614L34.8051-41.5585ZM35.7225-40.8437C35.6291-40.9053 35.5369-40.9693 35.4458-41.0356C35.5369-40.9693 35.6292-40.9053 35.7225-40.8437ZM34.7857-41.5763L34.7891-41.5732L34.7857-41.5763L34.7792-41.5822L34.7857-41.5763ZM34.7133-41.6438C34.7227-41.6348 34.7323-41.6258 34.7419-41.6168C34.7323-41.6258 34.7228-41.6348 34.7133-41.6438ZM34.6941-41.6619C34.697-41.6592 34.6998-41.6564 34.7027-41.6538L34.6963-41.6598L34.6941-41.6619ZM34.6626-41.6921C34.6709-41.6841 34.6794-41.6759 34.6878-41.6678C34.6794-41.6759 34.671-41.684 34.6626-41.6921ZM34.59-41.7629C34.6094-41.7437 34.6288-41.7248 34.6483-41.7058C34.6288-41.7248 34.6093-41.7438 34.59-41.7629ZM34.547-41.8058C34.5592-41.7935 34.5715-41.7812 34.5838-41.769C34.5715-41.7812 34.5592-41.7935 34.547-41.8058ZM34.4842-41.8697C34.5001-41.8533 34.516-41.8371 34.532-41.8209C34.5159-41.8371 34.5-41.8534 34.4842-41.8697ZM35.9955-40.672C35.9124-40.7217 35.83-40.7733 35.7483-40.8268C35.83-40.7734 35.9124-40.7218 35.9955-40.672ZM34.274-42.0955C34.3352-42.0269 34.3978-41.9593 34.4619-41.8928C34.3978-41.9593 34.3352-42.027 34.274-42.0955ZM36.0251-40.6543L36.0104-40.6631L35.9956-40.6719C36.0054-40.666 36.0153-40.6602 36.0251-40.6543ZM34.178-42.2051C34.2062-42.1723 34.2346-42.1397 34.2635-42.1073C34.2346-42.1397 34.2062-42.1723 34.178-42.2051ZM36.159-40.5769C36.141-40.587 36.1229-40.5974 36.1048-40.6078C36.1229-40.5974 36.1409-40.5871 36.159-40.5769ZM34.1115-42.2838C34.1334-42.2576 34.1556-42.2313 34.178-42.2052C34.1557-42.2312 34.1335-42.2575 34.1115-42.2838ZM34.0231-42.3919C34.0413-42.3692 34.0598-42.3464 34.0784-42.3237C34.0599-42.3464 34.0414-42.3691 34.0231-42.3919ZM36.3999-40.4468L36.3998-40.4468L36.3999-40.4468ZM33.9929-42.4298L33.9952-42.4269L33.9929-42.4298L33.9928-42.4299L33.9929-42.4298ZM33.9613-42.4701L33.967-42.4627L33.9613-42.4701L33.9535-42.4801L33.9613-42.4701ZM33.9015-42.5478C33.9074-42.5399 33.9135-42.532 33.9195-42.5241L33.9092-42.5376L33.9015-42.5478ZM33.8784-42.5784C33.8818-42.5739 33.8852-42.5693 33.8886-42.5648L33.8784-42.5784ZM33.7311-42.7816C33.7665-42.731 33.8025-42.6808 33.8392-42.631C33.8025-42.6809 33.7664-42.731 33.7311-42.7816ZM33.6282-42.9327C33.6597-42.8853 33.6917-42.8382 33.7244-42.7914C33.6917-42.8382 33.6597-42.8853 33.6282-42.9327ZM33.5503-43.0528C33.5714-43.0196 33.5928-42.9865 33.6145-42.9536C33.5928-42.9865 33.5714-43.0196 33.5503-43.0528ZM32.7953-44.6175C32.9851-44.0713 33.237-43.546 33.5502-43.053C33.237-43.546 32.9851-44.0714 32.7953-44.6175ZM32.761-44.7187C32.7646-44.7078 32.7682-44.6969 32.7719-44.686C32.7682-44.697 32.7646-44.7079 32.761-44.7187ZM38.9417-39.674L38.9293-39.6754L38.9417-39.674L38.958-39.6721L38.9417-39.674ZM38.9748-39.6702L38.9746-39.6702C38.9746-39.6702 38.9748-39.6702 38.9748-39.6702ZM39.041-39.6631L39.0304-39.6642L39.041-39.6631L39.0471-39.6625L39.041-39.6631ZM33.1702-45.2567L33.0452-45.27C33.0869-45.2659 33.1286-45.2615 33.1702-45.2567ZM39.3532-40.2263L39.3603-40.2052C39.3467-40.2465 39.3327-40.2877 39.3183-40.3288L39.3532-40.2263ZM33.3181-45.2381C33.2752-45.2439 33.2322-45.2493 33.1893-45.2545L33.1974-45.2535L33.3181-45.2381ZM37.0079-43.636L37.1225-43.5404L37.1596-43.5082L37.2347-43.4427L37.278-43.4037L37.3447-43.3431L37.3897-43.301L37.4524-43.2416L37.4975-43.1978L37.5579-43.1381L37.6023-43.0934L37.6615-43.0324L37.7043-42.9876L37.7634-42.9242L37.8037-42.8804L37.8648-42.812L37.9006-42.7716L37.9725-42.6877L37.995-42.6614L38.0863-42.5502L38.1134-42.516L38.1757-42.4369L38.2104-42.3914L38.2626-42.3222L38.2992-42.2724L38.3473-42.2059L38.384-42.1538L38.4295-42.0882L38.4657-42.0347L38.5095-41.9688L38.5447-41.9146L38.5873-41.8476L38.6211-41.7936L38.6633-41.7239L38.6949-41.6713L38.739-41.5953L38.7663-41.548L38.8336-41.4261L38.8542-41.3873L38.8999-41.3007L38.9274-41.2465L38.9637-41.1741L38.992-41.1157L39.0251-41.0463L39.053-40.986L39.0842-40.9173L39.1112-40.856L39.1409-40.787L39.1667-40.7255L39.1953-40.6552L39.2197-40.5942L39.2477-40.5214L39.2701-40.4623L39.2987-40.3834L39.3178-40.3303C38.8769-41.589 38.1053-42.7362 37.0148-43.6305L37.0079-43.636ZM34.4795-44.9857C34.0994-45.1008 33.7119-45.1847 33.3209-45.2378L33.3643-45.2316L33.4593-45.2176L33.5108-45.2093L33.5991-45.1946L33.653-45.1849L33.7388-45.1689L33.7934-45.158L33.8785-45.1404L33.9326-45.1286L34.0188-45.1089L34.0709-45.0966L34.1604-45.0744L34.2085-45.0621L34.3069-45.0354L34.3454-45.0249L34.4795-44.9857ZM37.0079-43.636C36.24-44.2643 35.3821-44.7118 34.4833-44.9846L34.6192-44.9419L34.6508-44.9313L34.7539-44.8966L34.7999-44.8804L34.888-44.8486L34.9391-44.8295L35.0217-44.798L35.0748-44.777L35.1548-44.7445L35.2084-44.7221L35.2876-44.6881L35.3407-44.6647L35.4207-44.6284L35.4717-44.6049L35.5555-44.5647L35.6015-44.5425L35.6991-44.4932L35.7302-44.4774L35.8583-44.4094L35.8838-44.3952L35.9849-44.3389L36.0295-44.3131L36.1104-44.2657L36.1603-44.2355L36.235-44.1897L36.2867-44.157L36.3587-44.1108L36.4109-44.0764L36.4817-44.0289L36.5332-43.9936L36.604-43.9438L36.6541-43.9081L36.7267-43.8548L36.7734-43.8201L36.8525-43.7594L36.8914-43.7294L37.0079-43.636ZM35.6935-45.41C35.7017-45.4019 35.71-45.3938 35.7182-45.3857C35.7513-45.353 35.7846-45.3205 35.818-45.2879C35.8864-45.2214 35.9554-45.1551 36.0251-45.089C35.9554-45.1551 35.8864-45.2214 35.818-45.2879C35.7846-45.3205 35.7513-45.353 35.7182-45.3857L35.7139-45.3899L35.6935-45.41ZM35.6708-45.4326C35.667-45.4363 35.6632-45.4401 35.6594-45.4438L35.6481-45.4551C35.631-45.4721 35.6139-45.4891 35.5969-45.5061L35.5916-45.5114L35.5804-45.5226C35.5859-45.5171 35.5914-45.5116 35.5969-45.5061C35.6139-45.4891 35.631-45.4721 35.6481-45.4551C35.6581-45.4451 35.6681-45.4352 35.6782-45.4252L35.6708-45.4326ZM35.5732-45.5298C35.5643-45.5388 35.5555-45.5476 35.5467-45.5564L35.5356-45.5678C35.5318-45.5715 35.5281-45.5753 35.5244-45.579L35.5132-45.5903L35.502-45.6016C35.4983-45.6054 35.4946-45.6091 35.4909-45.6129L35.4798-45.6242L35.4686-45.6355C35.4649-45.6393 35.4612-45.6431 35.4575-45.6468L35.4464-45.6582C35.4427-45.6619 35.439-45.6657 35.4353-45.6695L35.4242-45.6808C35.4329-45.672 35.4416-45.6631 35.4502-45.6543L35.4575-45.6468C35.4612-45.6431 35.4649-45.6393 35.4686-45.6355L35.4798-45.6242L35.4909-45.6129C35.4946-45.6091 35.4983-45.6054 35.502-45.6016L35.5132-45.5903C35.5132-45.5903 35.5244-45.579 35.5244-45.579C35.5281-45.5753 35.5318-45.5715 35.5356-45.5678L35.5467-45.5564C35.5555-45.5476 35.5643-45.5388 35.5732-45.5298ZM36.4607-47.134L36.4381-47.1551L36.6194-46.9866L36.8027-46.8184C36.8027-46.8184 36.8128-46.8091 36.8128-46.8091L36.8863-46.7423L36.9052-46.7252L36.9724-46.6645L36.9508-46.6839C36.9416-46.6923 36.9323-46.7006 36.9232-46.7089L36.9052-46.7252L36.8955-46.734L36.8863-46.7423L36.8679-46.759C36.8587-46.7674 36.8495-46.7758 36.8403-46.7841C36.8403-46.7841 36.8128-46.8091 36.8128-46.8091L36.8027-46.8184L36.6194-46.9866C36.5662-47.0357 36.5134-47.0849 36.4607-47.134ZM36.4043-47.1868L36.4212-47.1709C36.4212-47.1709 36.4043-47.1868 36.4043-47.1868ZM34.3433-46.8746C34.6788-46.4735 35.0384-46.0758 35.4208-45.6843C35.0384-46.0758 34.6788-46.4735 34.3433-46.8746L35.3927-48.1718C35.7183-47.8424 36.0557-47.5138 36.4043-47.1868C36.0557-47.5138 35.7183-47.8424 35.3927-48.1718L41.1732-55.3172C42.5895-55.1788 43.9698-54.6411 45.1413-53.683L45.1419-53.6826C46.3097-52.7271 47.1127-51.4822 47.5366-50.1202L42.5408-43.9449L42.5181-43.9613L42.5408-43.9449L39.4044-40.0678C39.392-40.1078 39.3792-40.1477 39.3662-40.1874L39.4044-40.0678L30.9461-29.6126C29.5297-29.7511 28.149-30.2889 26.9775-31.2472C25.8097-32.2026 25.0067-33.4476 24.5828-34.8096L34.3433-46.8746Z"/>
  </g>
 </g>
</svg>
